<svg width="26" height="26" viewBox="0 0 26 26" fill="none" xmlns="http://www.w3.org/2000/svg">
<path d="M1.88232 1.88235H5.92511L8.63377 16.06C8.72619 16.5475 8.97933 16.9854 9.34888 17.297C9.71843 17.6087 10.1808 17.7742 10.6552 17.7647H20.4791C20.9534 17.7742 21.4158 17.6087 21.7854 17.297C22.1549 16.9854 22.4081 16.5475 22.5005 16.06L24.1176 7.17647H6.9358M10.9786 23.0588C10.9786 23.6436 10.5261 24.1177 9.96789 24.1177C9.40969 24.1177 8.95719 23.6436 8.95719 23.0588C8.95719 22.4741 9.40969 22 9.96789 22C10.5261 22 10.9786 22.4741 10.9786 23.0588ZM22.0962 23.0588C22.0962 23.6436 21.6437 24.1177 21.0855 24.1177C20.5273 24.1177 20.0748 23.6436 20.0748 23.0588C20.0748 22.4741 20.5273 22 21.0855 22C21.6437 22 22.0962 22.4741 22.0962 23.0588Z" stroke="white" stroke-width="0.988235" stroke-linecap="round" stroke-linejoin="round"/>
</svg>
