<svg width="22" height="22" viewBox="0 0 22 22" fill="none" xmlns="http://www.w3.org/2000/svg">
<rect width="22" height="22" fill="#FC3F1D"/>
<path fill-rule="evenodd" clip-rule="evenodd" d="M18.7008 11C18.7008 15.2526 15.2534 18.7 11.0008 18.7C6.74819 18.7 3.30078 15.2526 3.30078 11C3.30078 6.74746 6.74819 3.30005 11.0008 3.30005C15.2534 3.30005 18.7008 6.74746 18.7008 11ZM12.0967 15.8339H13.787V15.8311H13.7756V6.16499H11.3323C8.87896 6.16499 7.583 7.42951 7.583 9.28843C7.583 10.7758 8.29457 11.6574 9.55908 12.5605L7.36011 15.8325H9.17759L11.6209 12.1675L10.7707 11.5946C9.73912 10.9044 9.24045 10.3629 9.24045 9.19412C9.24045 8.16393 9.96345 7.4738 11.3437 7.4738H12.0967V15.8339Z" fill="white"/>
</svg>
