<svg width="60" height="40" viewBox="0 0 60 40" fill="none" xmlns="http://www.w3.org/2000/svg">
<path d="M59.9984 38.4565H31.7261V36.8454L32.2297 36.8201C34.3627 36.6816 35.6277 36.3827 36.0248 35.9234C36.4201 35.4641 36.6195 34.0659 36.6195 31.727V6.73112C36.6195 4.38722 36.4201 2.99068 36.0248 2.54318C35.6277 2.09567 34.3627 1.80184 32.2297 1.66337L31.7261 1.61102V1.52588e-05H47.0662V1.61102L46.5644 1.66168C44.4142 1.80015 43.1422 2.0923 42.7555 2.54149C42.3671 2.98899 42.1746 4.38553 42.1746 6.72943V31.7254C42.1746 34.0304 42.3533 35.3543 42.7108 35.7022C43.0683 36.0484 44.4227 36.2206 46.7775 36.2206H50.8201C54.0136 36.2206 55.8424 36.0433 56.3081 35.6887C56.7722 35.3341 57.0679 33.8649 57.1968 31.2846L57.2243 30.7645H60.0001V38.4565H59.9984Z" fill="white"/>
<path d="M18.3532 18.9234C21.6412 19.4536 24.2194 20.6459 26.086 22.5017C27.9526 24.3576 28.8859 26.6542 28.8859 29.3932C28.8859 32.7149 27.779 35.1888 25.5635 36.815C23.3497 38.4395 19.9654 39.2535 15.4124 39.2535H0V37.6087L0.512198 37.5817C2.6899 37.4398 3.98243 37.1342 4.38634 36.6664C4.79198 36.1986 4.99479 34.77 4.99479 32.3822V6.86957C4.99479 4.4767 4.79198 3.05145 4.38634 2.59382C3.98243 2.13619 2.69162 1.83729 0.513917 1.69713L0 1.64309V0H16.1411C19.7523 0 22.5041 0.743021 24.3982 2.22906C26.2923 3.71511 27.2393 5.87325 27.2393 8.70517C27.2393 11.0052 26.4985 13.0096 25.0186 14.7169C23.5371 16.4241 21.3147 17.8258 18.3532 18.9234ZM10.5826 18.0081H12.1621C15.2525 18.0081 17.5711 17.2769 19.1163 15.8162C20.6615 14.3555 21.435 12.172 21.435 9.2675C21.435 6.5217 20.7217 4.58816 19.2985 3.4618C17.8737 2.33714 15.4089 1.77481 11.9043 1.77481H10.5826V18.0081ZM10.5826 19.7863V32.3839C10.5826 35.0892 10.8077 36.5566 11.2598 36.7863C12.1106 37.2456 13.3773 37.4753 15.0617 37.4753C17.4216 37.4753 19.3398 36.7458 20.8145 35.2868C22.2892 33.8277 23.0283 31.9313 23.0283 29.5976C23.0283 23.0573 18.8791 19.7863 10.5826 19.7863Z" fill="white"/>
</svg>
