<svg width="123" height="50" viewBox="0 0 123 50" fill="none" xmlns="http://www.w3.org/2000/svg">
<path d="M10.0244 10.8014C11.8203 11.0962 13.2285 11.759 14.248 12.7907C15.2676 13.8225 15.7773 15.0992 15.7773 16.6219C15.7773 18.4685 15.1728 19.8439 13.9626 20.7479C12.7535 21.651 10.905 22.1035 8.41815 22.1035H0V21.1892L0.27976 21.1741C1.46921 21.0953 2.17518 20.9254 2.3958 20.6653C2.61735 20.4053 2.72813 19.6111 2.72813 18.2836V4.10034C2.72813 2.77008 2.61735 1.97774 2.3958 1.72333C2.17518 1.46891 1.47015 1.30275 0.280699 1.22483L0 1.19479V0.281342H8.81619C10.7886 0.281342 12.2916 0.69441 13.3261 1.52055C14.3607 2.34668 14.878 3.54646 14.878 5.12081C14.878 6.39944 14.4734 7.51379 13.6651 8.46291C12.8558 9.41203 11.642 10.1912 10.0244 10.8014ZM5.78014 10.2926H6.64289C8.33084 10.2926 9.59727 9.88612 10.4412 9.07406C11.2852 8.26201 11.7077 7.04815 11.7077 5.43343C11.7077 3.90695 11.3181 2.83204 10.5408 2.20586C9.76249 1.58063 8.41627 1.26801 6.50207 1.26801H5.78014V10.2926ZM5.78014 11.2812V18.2845C5.78014 19.7885 5.90312 20.6043 6.15002 20.732C6.61473 20.9873 7.30662 21.115 8.22663 21.115C9.51559 21.115 10.5633 20.7094 11.3688 19.8983C12.1743 19.0872 12.5779 18.0329 12.5779 16.7355C12.5779 13.0996 10.3117 11.2812 5.78014 11.2812Z" fill="white"/>
<path d="M34.7391 22.103H19.0059V21.1886L19.2856 21.1736C20.4751 21.0947 21.181 20.9248 21.4017 20.6648C21.6232 20.4047 21.733 19.6105 21.733 18.2831V4.0998C21.733 2.76953 21.6223 1.97719 21.4017 1.72278C21.181 1.46836 20.4751 1.3022 19.2856 1.22428L19.0059 1.19517V0.280792H33.9279V4.0998H32.2907L32.2616 3.82004C32.1827 2.46348 32.0823 1.73122 31.9593 1.62326C31.8363 1.5153 31.0477 1.46085 29.5936 1.46085H24.8311V10.1897L28.8266 10.1747C29.7109 10.1747 30.2545 10.1287 30.4554 10.0348C30.6572 9.94096 30.7774 9.47719 30.8168 8.64167L30.8318 8.37599H32.0109V13.1676H30.8318L30.8168 12.9047C30.7774 12.1631 30.6572 11.7228 30.4554 11.581C30.2545 11.4393 29.7109 11.3689 28.8266 11.3689H24.8311V18.284C24.8311 19.4246 24.9653 20.1343 25.2366 20.415C25.507 20.6948 26.2073 20.8356 27.3376 20.8356H29.6677C31.3979 20.8356 32.3827 20.7493 32.624 20.5775C32.8643 20.4057 33.0192 19.6706 33.0887 18.3732L33.1037 18.1075H34.7409V22.103H34.7391Z" fill="white"/>
<path d="M41.5912 15.3793L40.3304 18.2792C39.8451 19.4227 39.6038 20.1859 39.6038 20.5689C39.6038 20.982 40.2375 21.1885 41.5058 21.1885H41.7414V22.1029H36.0796V21.1885L36.3894 21.1735C37.2352 21.1341 37.7384 21.028 37.9008 20.8562C38.0623 20.6844 38.4735 19.8263 39.1316 18.283L46.8306 0H47.8586L55.5135 18.3872C56.1134 19.7043 56.5359 20.4882 56.7818 20.7388C57.0278 20.9895 57.5094 21.1341 58.2266 21.1735L58.5655 21.1885V22.1029H50.4703V21.1885H50.736C52.1123 21.1885 52.8004 20.9914 52.8004 20.599C52.8004 20.0188 52.5939 19.2471 52.1808 18.283L50.9594 15.3793H41.5912ZM42.0653 14.1851H50.4243L46.2749 4.24709L42.0653 14.1851Z" fill="white"/>
<path d="M59.3906 1.19424V0.280792H67.9871V1.19517L67.7215 1.22428C66.5123 1.30314 65.7998 1.46649 65.5838 1.71527C65.3679 1.96498 65.259 2.7592 65.259 4.09886V13.4323C65.259 15.6892 65.3182 17.1612 65.4355 17.8484C65.5538 18.5356 65.8486 19.188 66.3198 19.8058C67.2737 21.0422 68.6987 21.6608 70.596 21.6608C72.375 21.6608 73.8001 21.121 74.8722 20.0423C75.4712 19.434 75.8627 18.7618 76.0448 18.0258C76.226 17.2898 76.317 15.9755 76.317 14.082V4.09979C76.317 2.76953 76.2063 1.97719 75.9847 1.72278C75.7641 1.46836 75.0534 1.3022 73.8536 1.22428L73.588 1.19517V0.280792H80.5773V1.19517L80.2975 1.22428C79.0883 1.30314 78.3786 1.46649 78.1665 1.71527C77.9543 1.96498 77.8491 2.7592 77.8491 4.09886V13.2408C77.8491 15.2658 77.7356 16.75 77.5102 17.6935C77.284 18.637 76.8324 19.5166 76.1537 20.3324C74.876 21.8758 72.8998 22.6475 70.2262 22.6475C64.8197 22.6475 62.1159 19.7429 62.1159 13.9336V4.09979C62.1159 2.76953 62.0052 1.97719 61.7845 1.72278C61.563 1.46836 60.858 1.3022 59.6685 1.22428L59.3906 1.19424Z" fill="white"/>
<path d="M89.9126 1.45991H86.4325C85.6167 1.45991 84.9042 1.50404 84.2949 1.59228C83.8912 1.65143 83.6903 2.01568 83.6903 2.6841C83.6903 3.18541 83.6809 3.6182 83.6612 3.98151L83.6462 4.27629H82.0972V0.280792H100.823V4.27629H99.2752L99.2602 3.98151C99.2311 3.6182 99.216 3.18541 99.216 2.6841C99.216 2.01568 99.0189 1.65143 98.6265 1.59228C98.0069 1.50404 97.2962 1.45991 96.4926 1.45991H93.0087V18.284C93.0087 19.5917 93.127 20.385 93.3627 20.6657C93.5983 20.9455 94.3015 21.1154 95.4712 21.1745L96.1049 21.1895V22.1039H86.8306V21.1886L87.4642 21.1736C88.634 21.1144 89.3343 20.9445 89.5653 20.6648C89.7962 20.385 89.9117 19.5908 89.9117 18.2831V1.45991H89.9126Z" fill="white"/>
<path d="M110.629 12.4306L105.645 4.18804C104.593 2.45785 104.009 1.54065 103.89 1.43644C103.773 1.33224 103.266 1.26183 102.371 1.22334L102.077 1.19517V0.280792H110.539V1.19517H110.244C108.848 1.19517 108.14 1.35477 108.121 1.67396C108.101 1.95466 108.505 2.79206 109.331 4.1871L113.42 11.0666L117.686 4.20776C118.531 2.84557 118.954 2.00817 118.954 1.69461C118.954 1.36134 118.271 1.19424 116.904 1.19424H116.638V0.280792H122.542V1.19517L122.263 1.22334C121.309 1.2806 120.756 1.37355 120.604 1.5031C120.452 1.63171 119.855 2.52732 118.813 4.18804L113.726 12.4306V18.284C113.726 19.6208 113.831 20.415 114.042 20.6657C114.254 20.9164 114.964 21.0863 116.174 21.1745L116.453 21.1895V22.1039H107.902V21.1886L108.168 21.1736C109.386 21.0853 110.101 20.9154 110.313 20.6648C110.524 20.4141 110.63 19.6199 110.63 18.2831V12.4306H110.629Z" fill="white"/>
<path d="M15.4422 49.4654H0V48.5698L0.275066 48.5557C1.44011 48.4787 2.13106 48.3126 2.34792 48.0572C2.56384 47.8019 2.67274 47.0245 2.67274 45.7243V31.8283C2.67274 30.5253 2.56384 29.7489 2.34792 29.5001C2.13106 29.2513 1.44011 29.088 0.275066 29.011L0 28.9819V28.0863H8.37872V28.9819L8.10459 29.0101C6.93016 29.0871 6.23545 29.2495 6.02423 29.4992C5.81206 29.748 5.70691 30.5243 5.70691 31.8274V45.7234C5.70691 47.0048 5.80455 47.7408 5.99982 47.9342C6.19509 48.1267 6.93485 48.2224 8.221 48.2224H10.429C12.1733 48.2224 13.1722 48.1239 13.4266 47.9267C13.6801 47.7296 13.8415 46.9128 13.912 45.4784L13.927 45.1892H15.4431V49.4654H15.4422Z" fill="white"/>
<path d="M27.885 49.9999C24.7823 49.9999 22.3368 48.9982 20.5493 46.9948C18.7609 44.9915 17.8672 42.2521 17.8672 38.7757C17.8672 35.2994 18.7609 32.5591 20.5493 30.5557C22.3377 28.5523 24.7823 27.5506 27.885 27.5506C30.9877 27.5506 33.4333 28.5523 35.2208 30.5557C37.0091 32.5591 37.9029 35.2994 37.9029 38.7757C37.9029 42.2521 37.0091 44.9924 35.2208 46.9948C33.4333 48.9982 30.9877 49.9999 27.885 49.9999ZM27.885 49.032C30.0142 49.032 31.6824 48.1261 32.8879 46.3142C34.0933 44.5024 34.696 41.992 34.696 38.7823C34.696 35.5735 34.0933 33.0604 32.8879 31.2438C31.6824 29.4272 30.0142 28.5185 27.885 28.5185C25.7549 28.5185 24.0876 29.4272 22.8822 31.2438C21.6768 33.0604 21.0741 35.5735 21.0741 38.7823C21.0741 41.992 21.6768 44.5024 22.8822 46.3142C24.0876 48.1261 25.7549 49.032 27.885 49.032Z" fill="white"/>
<path d="M40.0806 28.9813V28.0857H48.5015V28.9813L48.2415 29.0095C47.0567 29.0865 46.3583 29.247 46.147 29.4911C45.9349 29.7352 45.8297 30.5144 45.8297 31.8268V40.9706C45.8297 43.1815 45.8879 44.6235 46.0025 45.2966C46.1189 45.9697 46.4071 46.6081 46.869 47.2145C47.8031 48.4256 49.2 49.0311 51.0588 49.0311C52.8012 49.0311 54.1981 48.5026 55.2477 47.4455C55.8354 46.8493 56.2175 46.1912 56.3958 45.4703C56.5742 44.7493 56.6624 43.4612 56.6624 41.6062V31.8277C56.6624 30.5247 56.5545 29.7483 56.3376 29.4995C56.1217 29.2508 55.4251 29.0874 54.2507 29.0104L53.9906 28.9823V28.0867H60.8373V28.9823L60.5631 29.0104C59.3784 29.0874 58.6818 29.2479 58.4762 29.492C58.2678 29.7361 58.1654 30.5153 58.1654 31.8277V40.7838C58.1654 42.7675 58.0547 44.2217 57.8331 45.1464C57.6125 46.0711 57.1694 46.9329 56.5047 47.7318C55.2524 49.2442 53.3166 49.9999 50.6974 49.9999C45.4007 49.9999 42.7533 47.1544 42.7533 41.4626V31.8277C42.7533 30.5247 42.6444 29.7483 42.4285 29.4995C42.2116 29.2508 41.5207 29.0874 40.3547 29.0104L40.0806 28.9813Z" fill="white"/>
<path d="M79.184 49.7539L66.2681 31.8417V45.7237C66.2681 47.0342 66.3742 47.8115 66.5854 48.0565C66.7976 48.3025 67.496 48.4687 68.6808 48.555L68.9408 48.5691V49.4647H62.252V48.5691L62.5129 48.555C63.6968 48.4687 64.3962 48.3025 64.6074 48.0565C64.8196 47.8115 64.9247 47.0333 64.9247 45.7237V31.8277C64.9247 30.5152 64.8196 29.736 64.6093 29.492C64.398 29.2479 63.7033 29.0873 62.5261 29.0104L62.2529 28.9822V28.0866H67.0924L78.9521 44.6844V31.8277C78.9521 30.5246 78.8442 29.7482 78.6273 29.4995C78.4114 29.2507 77.7148 29.0873 76.5404 29.0104L76.2803 28.9822V28.0866H82.9392V28.9822L82.665 29.0104C81.4897 29.0873 80.7959 29.2497 80.5847 29.4995C80.3725 29.7482 80.2674 30.5246 80.2674 31.8277V49.7548H79.184V49.7539Z" fill="white"/>
<path d="M103.188 48.9447C100.444 49.6479 98.1273 49.999 96.2403 49.999C93.071 49.999 90.5485 48.9804 88.6709 46.9442C86.7933 44.907 85.8545 42.1704 85.8545 38.7316C85.8545 35.1783 86.7689 32.4267 88.5967 30.4759C90.4255 28.526 92.9996 27.5506 96.3192 27.5506C97.5021 27.5506 98.6624 27.6426 99.7974 27.8247C100.932 28.0078 102.044 28.2819 103.131 28.648V32.5337H101.529L101.509 32.2455C101.483 31.9854 101.47 31.7113 101.47 31.4222C101.47 30.5172 101.027 29.8065 100.143 29.2911C99.2586 28.7757 98.0259 28.5185 96.4488 28.5185C94.083 28.5185 92.2599 29.4169 90.9803 31.2128C89.7017 33.0087 89.0614 35.5632 89.0614 38.8762C89.0614 41.977 89.7768 44.4047 91.2065 46.1565C92.6363 47.9092 94.6172 48.7851 97.151 48.7851C97.9311 48.7851 98.9328 48.6265 100.155 48.3082V44.1043C100.155 42.7919 100.049 42.0127 99.8378 41.7686C99.6256 41.5245 98.9272 41.3593 97.7434 41.272L97.4824 41.2579V40.3623H105.861V41.2579L105.6 41.272C104.416 41.3583 103.717 41.5236 103.506 41.7686C103.293 42.0127 103.188 42.7909 103.188 44.1043V48.9447Z" fill="white"/>
<path d="M122.543 49.4647H107.13V48.5691L107.404 48.5551C108.57 48.4781 109.26 48.3119 109.477 48.0566C109.694 47.8012 109.802 47.0239 109.802 45.7237V31.8277C109.802 30.5246 109.694 29.7482 109.477 29.4995C109.261 29.2507 108.57 29.0873 107.404 29.0104L107.13 28.9822V28.0866H121.749V31.8286H120.147L120.118 31.5535C120.041 30.2242 119.942 29.507 119.822 29.4018C119.702 29.2957 118.928 29.2422 117.503 29.2422H112.837V37.7946L116.752 37.7796C117.619 37.7796 118.152 37.7336 118.349 37.6425C118.546 37.5515 118.664 37.0962 118.704 36.2775L118.718 36.0175H119.874V40.7124H118.718L118.704 40.4542C118.665 39.7285 118.546 39.2967 118.349 39.1577C118.152 39.0188 117.619 38.9493 116.752 38.9493H112.837V45.7237C112.837 46.8418 112.97 47.5365 113.235 47.8115C113.499 48.0857 114.186 48.2227 115.294 48.2227H117.576C119.271 48.2227 120.236 48.1382 120.472 47.9702C120.708 47.8021 120.86 47.0821 120.927 45.811L120.942 45.5509H122.544V49.4647H122.543Z" fill="white"/>
</svg>
