<svg width="142" height="13" viewBox="0 0 142 13" fill="none" xmlns="http://www.w3.org/2000/svg">
<path d="M5.74414 6.22559C6.7679 6.3916 7.57031 6.76514 8.15137 7.34619C8.73242 7.92725 9.02295 8.64665 9.02295 9.50439C9.02295 10.5448 8.67708 11.3195 7.98535 11.8286C7.29362 12.3377 6.23665 12.5923 4.81445 12.5923H0V12.0776L0.157715 12.0693C0.827311 12.0251 1.22298 11.931 1.34473 11.7871C1.47201 11.6377 1.53564 11.1895 1.53564 10.4424V2.45703C1.53564 1.70443 1.47201 1.25618 1.34473 1.1123C1.22298 0.968424 0.827311 0.874349 0.157715 0.830078L0 0.813477V0.307129H5.04688C6.17578 0.307129 7.0363 0.539551 7.62842 1.00439C8.22054 1.46924 8.5166 2.14437 8.5166 3.02979C8.5166 3.74919 8.28418 4.37728 7.81934 4.91406C7.36003 5.44531 6.66829 5.88249 5.74414 6.22559ZM3.25391 6.49951V10.4424C3.25391 11.2891 3.32585 11.7484 3.46973 11.8203C3.74089 11.9642 4.14486 12.0361 4.68164 12.0361C5.43424 12.0361 6.04574 11.8092 6.51611 11.3555C6.98649 10.8962 7.22168 10.3013 7.22168 9.5708C7.22168 7.52327 5.89909 6.49951 3.25391 6.49951ZM3.25391 5.93506H3.76025C4.75081 5.93506 5.49235 5.70817 5.98486 5.25439C6.48291 4.79508 6.73193 4.11165 6.73193 3.2041C6.73193 2.34635 6.50228 1.74316 6.04297 1.39453C5.58919 1.04036 4.80062 0.863281 3.67725 0.863281H3.25391V5.93506Z" fill="white"/>
<path d="M19.2163 12.5923H10.3594V12.0776L10.5171 12.0693C11.1867 12.0251 11.5824 11.931 11.7041 11.7871C11.8314 11.6377 11.895 11.1895 11.895 10.4424V2.45703C11.895 1.70443 11.8314 1.25618 11.7041 1.1123C11.5824 0.968424 11.1867 0.874349 10.5171 0.830078L10.3594 0.813477V0.307129H18.7598V2.45703H17.8384L17.8218 2.29932C17.7775 1.53564 17.7194 1.12337 17.6475 1.0625C17.5811 1.00163 17.1383 0.971191 16.3193 0.971191H13.6382V5.88525L15.8877 5.87695C16.3857 5.87695 16.6901 5.85205 16.8008 5.80225C16.917 5.74691 16.9862 5.48405 17.0083 5.01367L17.0166 4.86426H17.6807V7.57031H17.0166L17.0083 7.4209C16.9862 7.00033 16.917 6.7513 16.8008 6.67383C16.6901 6.59082 16.3857 6.54932 15.8877 6.54932H13.6382V10.4424C13.6382 11.0843 13.7129 11.4855 13.8623 11.646C14.0173 11.8009 14.4129 11.8784 15.0493 11.8784H16.3608C17.3348 11.8784 17.8882 11.8314 18.021 11.7373C18.1593 11.6377 18.2479 11.2227 18.2866 10.4922L18.2949 10.3428H19.2163V12.5923Z" fill="white"/>
<path d="M22.7358 8.80713L22.0303 10.4424C21.7536 11.0843 21.6152 11.5132 21.6152 11.729C21.6152 11.9614 21.9722 12.0776 22.686 12.0776H22.8188V12.5923H19.6313V12.0776L19.8057 12.0693C20.2816 12.0472 20.5638 11.9891 20.6523 11.895C20.7464 11.7954 20.9788 11.3112 21.3496 10.4424L25.6743 0.149414H26.2554L30.5635 10.5005C30.901 11.242 31.139 11.6847 31.2773 11.8286C31.4157 11.967 31.6868 12.0472 32.0908 12.0693L32.2817 12.0776V12.5923H27.7246V12.0776H27.874C28.6488 12.0776 29.0361 11.967 29.0361 11.7456C29.0361 11.4191 28.9199 10.9847 28.6875 10.4424L27.9985 8.80713H22.7358ZM23.0098 8.13477H27.6997L25.3672 2.54004L23.0098 8.13477Z" fill="white"/>
<path d="M32.4146 0.813477V0.307129H37.2539V0.813477L37.1045 0.830078C36.4238 0.874349 36.0226 0.968424 35.9009 1.1123C35.7791 1.25065 35.7183 1.69889 35.7183 2.45703V7.71143C35.7183 8.98421 35.7515 9.81429 35.8179 10.2017C35.8843 10.589 36.0503 10.957 36.3159 11.3057C36.8527 12.0029 37.6551 12.3516 38.7231 12.3516C39.7248 12.3516 40.5272 12.0472 41.1304 11.4385C41.4679 11.0954 41.6865 10.7163 41.7861 10.3013C41.8913 9.88623 41.9438 9.14469 41.9438 8.07666V2.45703C41.9438 1.70443 41.8802 1.25618 41.7529 1.1123C41.6312 0.968424 41.2327 0.874349 40.5576 0.830078L40.4082 0.813477V0.307129H44.3428V0.813477L44.1851 0.830078C43.5044 0.874349 43.1032 0.968424 42.9814 1.1123C42.8652 1.25065 42.8071 1.69889 42.8071 2.45703V7.60352C42.8071 8.74349 42.7435 9.5791 42.6162 10.1104C42.4889 10.6416 42.2344 11.1369 41.8525 11.5962C41.1331 12.465 40.0208 12.8994 38.5156 12.8994C35.472 12.8994 33.9502 11.2642 33.9502 7.99365V2.45703C33.9502 1.70443 33.8866 1.25618 33.7593 1.1123C33.6375 0.968424 33.2419 0.874349 32.5723 0.830078L32.4146 0.813477Z" fill="white"/>
<path d="M49.2568 0.971191H47.2979C46.8385 0.971191 46.4373 0.996094 46.0942 1.0459C45.8674 1.0791 45.7539 1.28385 45.7539 1.66016C45.7539 1.94238 45.7484 2.18587 45.7373 2.39062L45.729 2.55664H44.8574V0.307129H55.4077V2.55664H54.5361L54.5278 2.39062C54.5112 2.18587 54.5029 1.94238 54.5029 1.66016C54.5029 1.28385 54.3923 1.0791 54.1709 1.0459C53.8223 0.996094 53.4211 0.971191 52.9673 0.971191H51V10.4424C51 11.1784 51.0664 11.6266 51.1992 11.7871C51.332 11.9421 51.7277 12.0361 52.3862 12.0693L52.7432 12.0776V12.5923H47.522V12.0776L47.8789 12.0693C48.5374 12.0361 48.9303 11.9421 49.0576 11.7871C49.1904 11.6266 49.2568 11.1784 49.2568 10.4424V0.971191Z" fill="white"/>
<path d="M60.5874 7.14697L57.7817 2.50684C57.1896 1.53288 56.8604 1.01546 56.7939 0.95459C56.7275 0.893717 56.4425 0.852214 55.939 0.830078L55.7729 0.813477V0.307129H60.5376V0.813477H60.3716C59.5858 0.813477 59.1873 0.904785 59.1763 1.0874C59.1652 1.24788 59.3921 1.72103 59.8569 2.50684L62.1562 6.3833L64.5552 2.51514C65.0311 1.74593 65.269 1.27279 65.269 1.0957C65.269 0.907552 64.8844 0.813477 64.1152 0.813477H63.9658V0.307129H67.2944V0.813477L67.1367 0.830078C66.5999 0.863281 66.2873 0.91862 66.1987 0.996094C66.1157 1.06803 65.7809 1.57161 65.1943 2.50684L62.3306 7.14697V10.4424C62.3306 11.195 62.3887 11.6432 62.5049 11.7871C62.6266 11.9255 63.0278 12.0195 63.7085 12.0693L63.8662 12.0776V12.5923H59.0518V12.0776L59.2012 12.0693C59.8874 12.0195 60.2886 11.9255 60.4048 11.7871C60.5265 11.6432 60.5874 11.195 60.5874 10.4424V7.14697Z" fill="white"/>
<path d="M81.6382 12.5923H72.8311V12.0776L72.9888 12.0693C73.6584 12.0251 74.054 11.931 74.1758 11.7871C74.3031 11.6377 74.3667 11.1895 74.3667 10.4424V2.45703C74.3667 1.70443 74.3031 1.25618 74.1758 1.1123C74.054 0.968424 73.6584 0.874349 72.9888 0.830078L72.8311 0.813477V0.307129H77.6455V0.813477L77.4878 0.830078C76.8127 0.874349 76.4142 0.968424 76.2925 1.1123C76.1707 1.25618 76.1099 1.70443 76.1099 2.45703V10.4424C76.1099 11.1784 76.1652 11.6017 76.2759 11.7124C76.3866 11.8231 76.8071 11.8784 77.5376 11.8784H78.791C79.7816 11.8784 80.346 11.8231 80.4844 11.7124C80.6283 11.5962 80.7196 11.1258 80.7583 10.3013L80.7666 10.1353H81.6382V12.5923Z" fill="white"/>
<path d="M88.561 12.8994C86.7847 12.8994 85.3846 12.3239 84.3608 11.1729C83.3371 10.0218 82.8252 8.44743 82.8252 6.44971C82.8252 4.45199 83.3371 2.8776 84.3608 1.72656C85.3846 0.575521 86.7847 0 88.561 0C90.3374 0 91.7375 0.575521 92.7612 1.72656C93.785 2.8776 94.2969 4.45199 94.2969 6.44971C94.2969 8.44743 93.785 10.0218 92.7612 11.1729C91.7375 12.3239 90.3374 12.8994 88.561 12.8994ZM88.561 12.335C89.7785 12.335 90.7303 11.8148 91.4165 10.7744C92.1082 9.73405 92.4541 8.29248 92.4541 6.44971C92.4541 4.60693 92.1082 3.16536 91.4165 2.125C90.7303 1.0791 89.7785 0.556152 88.561 0.556152C87.3436 0.556152 86.389 1.0791 85.6973 2.125C85.0111 3.16536 84.668 4.60693 84.668 6.44971C84.668 8.29248 85.0111 9.73405 85.6973 10.7744C86.389 11.8148 87.3436 12.335 88.561 12.335Z" fill="white"/>
<path d="M95.3013 0.813477V0.307129H100.141V0.813477L99.9912 0.830078C99.3105 0.874349 98.9093 0.968424 98.7876 1.1123C98.6659 1.25065 98.605 1.69889 98.605 2.45703V7.71143C98.605 8.98421 98.6382 9.81429 98.7046 10.2017C98.771 10.589 98.937 10.957 99.2026 11.3057C99.7394 12.0029 100.542 12.3516 101.61 12.3516C102.611 12.3516 103.414 12.0472 104.017 11.4385C104.355 11.0954 104.573 10.7163 104.673 10.3013C104.778 9.88623 104.831 9.14469 104.831 8.07666V2.45703C104.831 1.70443 104.767 1.25618 104.64 1.1123C104.518 0.968424 104.119 0.874349 103.444 0.830078L103.295 0.813477V0.307129H107.229V0.813477L107.072 0.830078C106.391 0.874349 105.99 0.968424 105.868 1.1123C105.752 1.25065 105.694 1.69889 105.694 2.45703V7.60352C105.694 8.74349 105.63 9.5791 105.503 10.1104C105.376 10.6416 105.121 11.1369 104.739 11.5962C104.02 12.465 102.908 12.8994 101.402 12.8994C98.3587 12.8994 96.8369 11.2642 96.8369 7.99365V2.45703C96.8369 1.70443 96.7733 1.25618 96.646 1.1123C96.5243 0.968424 96.1286 0.874349 95.459 0.830078L95.3013 0.813477Z" fill="white"/>
<path d="M117.68 12.7583L110.06 2.46533V10.4424C110.06 11.195 110.121 11.6432 110.243 11.7871C110.364 11.9255 110.766 12.0195 111.446 12.0693L111.596 12.0776V12.5923H107.752V12.0776L107.902 12.0693C108.583 12.0195 108.984 11.9255 109.105 11.7871C109.227 11.6432 109.288 11.195 109.288 10.4424V2.45703C109.288 1.69889 109.227 1.25065 109.105 1.1123C108.984 0.968424 108.583 0.874349 107.902 0.830078L107.744 0.813477V0.307129H110.508L117.514 9.84473V2.45703C117.514 1.70443 117.451 1.25618 117.323 1.1123C117.201 0.968424 116.803 0.874349 116.128 0.830078L115.979 0.813477V0.307129H119.805V0.813477L119.647 0.830078C118.972 0.874349 118.574 0.968424 118.452 1.1123C118.33 1.25618 118.27 1.70443 118.27 2.45703V12.7583H117.68Z" fill="white"/>
<path d="M131.003 12.2935C129.426 12.6974 128.095 12.8994 127.01 12.8994C125.19 12.8994 123.74 12.3156 122.661 11.1479C121.582 9.97477 121.042 8.40039 121.042 6.4248C121.042 4.38281 121.568 2.8029 122.619 1.68506C123.671 0.561686 125.151 0 127.06 0C127.741 0 128.408 0.0525716 129.061 0.157715C129.714 0.262858 130.353 0.420573 130.978 0.630859V2.86377H130.057L130.048 2.69775C130.037 2.54834 130.032 2.39062 130.032 2.22461C130.032 1.70443 129.777 1.29769 129.268 1.00439C128.759 0.705566 128.051 0.556152 127.143 0.556152C125.782 0.556152 124.733 1.07357 123.997 2.1084C123.261 3.1377 122.893 4.60417 122.893 6.50781C122.893 8.28971 123.303 9.68425 124.122 10.6914C124.946 11.6986 126.086 12.2021 127.542 12.2021C127.99 12.2021 128.565 12.1108 129.268 11.9282V9.5127C129.268 8.75456 129.207 8.30632 129.085 8.16797C128.964 8.02409 128.562 7.92725 127.882 7.87744L127.732 7.86914V7.36279H132.539V7.86914L132.389 7.87744C131.708 7.92725 131.307 8.02409 131.186 8.16797C131.064 8.30632 131.003 8.75456 131.003 9.5127V12.2935Z" fill="white"/>
<path d="M141.835 12.5923H132.979V12.0776L133.136 12.0693C133.806 12.0251 134.201 11.931 134.323 11.7871C134.451 11.6377 134.514 11.1895 134.514 10.4424V2.45703C134.514 1.70443 134.451 1.25618 134.323 1.1123C134.201 0.968424 133.806 0.874349 133.136 0.830078L132.979 0.813477V0.307129H141.379V2.45703H140.458L140.441 2.29932C140.397 1.53564 140.339 1.12337 140.267 1.0625C140.2 1.00163 139.757 0.971191 138.938 0.971191H136.257V5.88525L138.507 5.87695C139.005 5.87695 139.309 5.85205 139.42 5.80225C139.536 5.74691 139.605 5.48405 139.627 5.01367L139.636 4.86426H140.3V7.57031H139.636L139.627 7.4209C139.605 7.00033 139.536 6.7513 139.42 6.67383C139.309 6.59082 139.005 6.54932 138.507 6.54932H136.257V10.4424C136.257 11.0843 136.332 11.4855 136.481 11.646C136.636 11.8009 137.032 11.8784 137.668 11.8784H138.98C139.954 11.8784 140.507 11.8314 140.64 11.7373C140.778 11.6377 140.867 11.2227 140.906 10.4922L140.914 10.3428H141.835V12.5923Z" fill="white"/>
</svg>
