<svg width="50" height="50" viewBox="0 0 50 50" fill="none" xmlns="http://www.w3.org/2000/svg">
<path d="M23.4661 0.657393C9.50919 1.38668 0.296034 12.3327 0.878129 26.1357C1.13238 32.1775 3.56112 37.3762 4.13652 43.1102C4.28372 44.5955 3.85551 46.4288 5.56834 47.0778C7.67593 47.874 10.9076 46.5358 12.6739 45.3114C13.2761 44.9033 13.8515 44.4282 14.2931 43.8395C16.1196 45.0505 17.8526 46.2214 20.027 46.7432C29.6015 49.0382 40.0926 43.7859 44.756 35.3489C53.5209 19.4985 41.6716 -0.292692 23.4661 0.657393ZM18.0466 33.7364C17.2905 34.3252 16.5612 35.1281 15.7249 35.5898C14.5139 36.2388 14.1392 35.563 13.6842 34.4925C12.2524 31.0869 12.0784 25.286 12.9148 21.7199C14.0388 16.8691 17.7923 12.6004 22.9509 12.1454C28.1697 11.6837 33.0138 14.3333 35.2017 19.1172C40.0458 29.7621 27.6478 40.2733 18.0466 33.7431V33.7364Z" fill="white"/>
</svg>
