<svg width="33" height="9" viewBox="0 0 33 9" fill="none" xmlns="http://www.w3.org/2000/svg">
<g clip-path="url(#clip0_2006_2498)">
<path d="M29.5514 0C30.3954 0 31.1604 0.316406 31.7387 0.836719C32.3851 1.41328 32.791 2.24298 32.791 3.16758C32.791 3.35742 32.7694 3.54375 32.7371 3.72656H27.3067C25.4678 3.72656 23.9091 2.54531 23.3848 0.914062C23.3776 0.896484 23.374 0.87539 23.3668 0.854296C23.3524 0.805077 23.3417 0.752344 23.3273 0.703125C23.2734 0.474609 23.2375 0.242577 23.2231 0H29.5514Z" fill="white"/>
<path d="M7.17227 1.18125L5.95474 5.31563H5.74644L4.52891 1.18125C4.32061 0.48164 3.66694 0 2.91991 0H0V9H2.9235V3.68086H3.13181L4.80546 9H6.89573L8.56579 3.68086H8.77409V9H11.6976V0H8.77769C8.03424 0 7.38059 0.48164 7.17227 1.18125ZM23.3592 9H26.3007V6.33867H29.2602C30.8081 6.33867 32.1263 5.48086 32.6362 4.275H23.3592V9ZM18.148 0.949219L16.09 5.31914H15.8817V0H12.9582V9H15.44C16.0936 9 16.6862 8.62734 16.9591 8.05079L19.0171 3.68437H19.2255V9H22.1489V0H19.6672C19.0135 0 18.4209 0.372656 18.148 0.949219Z" fill="white"/>
</g>
<defs>
<clipPath id="clip0_2006_2498">
<rect width="32.7906" height="9" fill="white"/>
</clipPath>
</defs>
</svg>
