<svg width="72" height="13" viewBox="0 0 72 13" fill="none" xmlns="http://www.w3.org/2000/svg">
<path d="M30.9369 8.27241V5.6898C30.9369 4.71702 30.3113 4.06278 29.3033 4.05415C29.0161 4.03563 28.7292 4.09375 28.4724 4.22245C28.2157 4.35116 27.9984 4.54574 27.8434 4.78591C27.7021 4.5529 27.5 4.36194 27.2584 4.23316C27.0167 4.10438 26.7445 4.04254 26.4704 4.05415C26.2315 4.04226 25.9935 4.0924 25.7801 4.19961C25.5668 4.30681 25.3854 4.46738 25.2539 4.66539V4.15747H24.3501V8.27241H25.2625V5.99107C25.2625 5.27658 25.6623 4.89787 26.2792 4.89787C26.8788 4.89787 27.183 5.2852 27.183 5.98251V8.27241H28.0954V5.99107C28.0954 5.27658 28.5125 4.89787 29.1121 4.89787C29.729 4.89787 30.0245 5.2852 30.0245 5.98251V8.27241H30.9369ZM44.4408 4.15747H42.9636V2.90925H42.0512V4.15747H41.2082V4.9753H42.0512V6.85196C42.0512 7.80756 42.4248 8.37575 43.4936 8.37575C43.8929 8.37692 44.2845 8.26651 44.6233 8.05721L44.3626 7.29101C44.1203 7.43423 43.8452 7.51422 43.5631 7.52347C43.1113 7.52347 42.9636 7.24794 42.9636 6.83479V4.9753H44.4408V4.15747ZM52.1486 4.05415C51.9283 4.04772 51.7103 4.10031 51.5176 4.20637C51.3249 4.31243 51.1646 4.46802 51.0538 4.65676V4.15747H50.1587V8.27241H51.0624V5.96526C51.0624 5.2852 51.3579 4.90641 51.9488 4.90641C52.1421 4.90378 52.3341 4.93889 52.5137 5.00974L52.7917 4.16609C52.5853 4.09289 52.3678 4.05504 52.1486 4.05415ZM40.4957 4.48463C39.9841 4.18327 39.396 4.03385 38.8012 4.05415C37.7497 4.05415 37.0719 4.55345 37.0719 5.37126C37.0719 6.04277 37.5759 6.45599 38.5057 6.58514L38.9315 6.64538C39.4268 6.7142 39.6614 6.84333 39.6614 7.07581C39.6614 7.39432 39.3312 7.5751 38.7143 7.5751C38.218 7.58923 37.7313 7.43763 37.3325 7.14468L36.9068 7.84192C37.4332 8.20617 38.0637 8.39331 38.7056 8.37575C39.9047 8.37575 40.5999 7.81611 40.5999 7.03274C40.5999 6.30959 40.0525 5.93082 39.1487 5.80169L38.723 5.74142C38.3319 5.68979 38.0191 5.61237 38.0191 5.33691C38.0191 5.03556 38.3145 4.85479 38.8099 4.85479C39.2647 4.86157 39.7103 4.98305 40.1046 5.20776L40.4957 4.48463ZM64.7054 4.05415C64.485 4.04771 64.267 4.1003 64.0743 4.20636C63.8816 4.31242 63.7214 4.46802 63.6105 4.65676V4.15747H62.7154V8.27241H63.6191V5.96526C63.6191 5.2852 63.9146 4.90641 64.5055 4.90641C64.6988 4.90377 64.8907 4.93888 65.0704 5.00974L65.3484 4.16609C65.142 4.09289 64.9246 4.05503 64.7054 4.05415ZM53.061 6.21491C53.061 7.46321 53.9388 8.37575 55.277 8.37575C55.8196 8.40273 56.3527 8.22767 56.7716 7.88499L56.3371 7.16186C56.0247 7.39782 55.6437 7.52762 55.2509 7.53201C54.5297 7.52347 53.9996 7.00692 53.9996 6.21491C53.9996 5.42296 54.5297 4.90641 55.2509 4.89787C55.6437 4.90225 56.0247 5.03206 56.3371 5.26801L56.7716 4.54489C56.3527 4.20221 55.8196 4.02716 55.277 4.05415C53.9388 4.05415 53.061 4.96667 53.061 6.21491ZM61.5249 6.21491V4.15747H60.6212V4.65676C60.4669 4.45983 60.2673 4.30236 60.039 4.19752C59.8107 4.09268 59.5604 4.04352 59.309 4.05415C58.1446 4.05415 57.2322 4.95813 57.2322 6.21491C57.2322 7.47177 58.1446 8.37575 59.309 8.37575C59.5604 8.38638 59.8107 8.33721 60.039 8.23237C60.2673 8.12753 60.4669 7.97005 60.6212 7.77312V8.27241H61.5249V6.21491ZM58.1619 6.21491C58.1619 5.49178 58.6399 4.89787 59.422 4.89787C60.1693 4.89787 60.6733 5.46597 60.6733 6.21491C60.6733 6.96385 60.1693 7.53201 59.422 7.53201C58.6399 7.53201 58.1619 6.93804 58.1619 6.21491ZM47.2563 4.05415C46.0397 4.05415 45.1882 4.93223 45.1882 6.21491C45.1882 7.52347 46.0745 8.37575 47.3172 8.37575C47.9371 8.39729 48.5434 8.19196 49.0204 7.79893L48.5771 7.13605C48.234 7.40851 47.809 7.55995 47.3693 7.56647C46.787 7.56647 46.257 7.29964 46.1266 6.55924H49.2115C49.2202 6.44737 49.2289 6.3355 49.2289 6.21491C49.2202 4.93223 48.4208 4.05415 47.2563 4.05415ZM47.2389 4.85479C47.8212 4.85479 48.1948 5.21631 48.2904 5.85338H46.1353C46.2309 5.25939 46.5958 4.85479 47.2389 4.85479ZM69.9105 6.21491V2.50464H69.0068V4.65676C68.8525 4.45984 68.6529 4.30237 68.4246 4.19753C68.1964 4.09269 67.946 4.04353 67.6947 4.05415C66.5302 4.05415 65.6178 4.95813 65.6178 6.21491C65.6178 7.47177 66.5302 8.37575 67.6947 8.37575C67.946 8.38637 68.1964 8.3372 68.4246 8.23236C68.6529 8.12752 68.8525 7.97004 69.0068 7.77312V8.27241H69.9105V6.21491ZM70.9667 7.89269C71.0025 7.89245 71.038 7.89942 71.0711 7.91316C71.1028 7.92631 71.1318 7.94532 71.1564 7.96916C71.1808 7.99298 71.2003 8.02125 71.2138 8.0524C71.2277 8.0844 71.2349 8.11886 71.2349 8.15368C71.2349 8.18851 71.2277 8.22297 71.2138 8.25497C71.2002 8.28597 71.1807 8.31411 71.1564 8.33785C71.1317 8.36171 71.1028 8.38081 71.0711 8.39415C71.0381 8.40814 71.0026 8.41523 70.9667 8.41498C70.9139 8.41552 70.8621 8.40063 70.8178 8.37217C70.7735 8.34371 70.7387 8.30294 70.7176 8.25497C70.7038 8.22296 70.6967 8.1885 70.6967 8.15368C70.6967 8.11886 70.7038 8.08441 70.7176 8.0524C70.7449 7.98918 70.7962 7.93916 70.8605 7.91316C70.8941 7.89938 70.9303 7.89241 70.9667 7.89269ZM70.9667 8.35737C70.994 8.35758 71.0211 8.35213 71.0462 8.34139C71.0703 8.331 71.0922 8.31623 71.1108 8.29784C71.1491 8.2595 71.1705 8.20774 71.1705 8.1538C71.1705 8.09987 71.1491 8.04811 71.1108 8.00978C71.0922 7.99143 71.0703 7.97678 71.0462 7.96662C71.0211 7.95603 70.994 7.95069 70.9667 7.95092C70.9389 7.95071 70.9113 7.95605 70.8856 7.96662C70.8547 7.97966 70.8275 8 70.8063 8.02587C70.7852 8.05174 70.7707 8.08234 70.7642 8.11502C70.7578 8.14769 70.7595 8.18143 70.7692 8.2133C70.7789 8.24517 70.7964 8.27419 70.8201 8.29784C70.8389 8.31638 70.8611 8.33116 70.8856 8.34139C70.9113 8.35212 70.9389 8.35756 70.9667 8.35737ZM70.9822 8.03157C71.0082 8.0299 71.0339 8.03727 71.0549 8.0524C71.0633 8.05923 71.07 8.0679 71.0744 8.07773C71.0789 8.08755 71.0809 8.09826 71.0805 8.10901C71.0808 8.11823 71.0791 8.1274 71.0756 8.13594C71.0721 8.14448 71.0668 8.1522 71.0601 8.1586C71.044 8.17271 71.0237 8.18115 71.0023 8.18261L71.0824 8.27413H71.0197L70.9454 8.18323H70.9215V8.27413H70.8692V8.03157H70.9822ZM70.9215 8.07703V8.14167H70.9816C70.9931 8.14226 71.0046 8.13947 71.0146 8.13365C71.0186 8.13097 71.0219 8.12728 71.024 8.12296C71.0262 8.11863 71.0271 8.11382 71.0268 8.10901C71.0271 8.1043 71.0261 8.0996 71.0239 8.09538C71.0218 8.09117 71.0185 8.08759 71.0146 8.085C71.0046 8.07923 70.9931 8.07646 70.9816 8.07703H70.9215ZM66.5476 6.21491C66.5476 5.49178 67.0256 4.89787 67.8076 4.89787C68.5549 4.89787 69.0589 5.46597 69.0589 6.21491C69.0589 6.96385 68.5549 7.53201 67.8076 7.53201C67.0256 7.53201 66.5476 6.93804 66.5476 6.21491ZM36.0291 6.21491V4.15747H35.1254V4.65676C34.9711 4.45983 34.7715 4.30235 34.5432 4.19751C34.3149 4.09267 34.0646 4.04352 33.8132 4.05415C32.6488 4.05415 31.7364 4.95813 31.7364 6.21491C31.7364 7.47177 32.6488 8.37575 33.8132 8.37575C34.0646 8.38638 34.3149 8.33722 34.5432 8.23238C34.7715 8.12753 34.9711 7.97005 35.1254 7.77312V8.27241H36.0291V6.21491ZM32.6662 6.21491C32.6662 5.49178 33.1442 4.89787 33.9262 4.89787C34.6735 4.89787 35.1775 5.46597 35.1775 6.21491C35.1775 6.96385 34.6735 7.53201 33.9262 7.53201C33.1442 7.53201 32.6662 6.93804 32.6662 6.21491Z" fill="white"/>
<path d="M12.5684 1.58606V10.7892H7.62891V1.58606H12.5684Z" fill="white" stroke="black" stroke-width="0.526152"/>
<path d="M6.88477 0.296875C7.89064 0.403872 8.84917 0.763698 9.6748 1.33594C9.02267 1.90165 8.49032 2.59234 8.11035 3.36719C7.67949 4.24591 7.45616 5.21037 7.45703 6.1875L7.4668 6.55273C7.51484 7.40411 7.73327 8.23879 8.11035 9.00781C8.49023 9.78247 9.02289 10.4724 9.6748 11.0381C8.84907 11.6105 7.89082 11.9711 6.88477 12.0781C5.7681 12.1969 4.63979 12.0018 3.62988 11.5156C2.6202 11.0295 1.76906 10.2721 1.17383 9.33008C0.578561 8.38788 0.262699 7.29861 0.262695 6.1875C0.262695 5.07638 0.578557 3.98712 1.17383 3.04492C1.76906 2.10288 2.62019 1.34548 3.62988 0.859375C4.63979 0.373225 5.7681 0.178141 6.88477 0.296875Z" fill="white" stroke="black" stroke-width="0.526152"/>
<path d="M13.3198 0.296875C14.4365 0.178143 15.5648 0.373221 16.5747 0.859375C17.5844 1.3455 18.4356 2.10288 19.0308 3.04492C19.626 3.98712 19.941 5.0764 19.9409 6.1875C19.941 7.2986 19.626 8.38788 19.0308 9.33008C18.4356 10.2721 17.5844 11.0295 16.5747 11.5156C15.5648 12.0018 14.4365 12.1969 13.3198 12.0781C12.3135 11.9711 11.3547 11.6108 10.5288 11.0381C11.1804 10.472 11.7133 9.7825 12.0933 9.00781C12.5241 8.12916 12.7476 7.16457 12.7476 6.1875C12.7476 5.21043 12.5241 4.24584 12.0933 3.36719C11.7133 2.5923 11.1806 1.90213 10.5288 1.33594C11.3546 0.763418 12.3137 0.403896 13.3198 0.296875Z" fill="white" stroke="black" stroke-width="0.526152"/>
<mask id="path-5-inside-1_2006_2489" fill="white">
<path d="M19.5956 10.0228V9.82357H19.6767V9.78299H19.4702V9.82357H19.5513V10.0228H19.5956ZM19.9965 10.0228V9.78259H19.9332L19.8604 9.94778L19.7876 9.78259H19.7242V10.0228H19.7689V9.8416L19.8372 9.99778H19.8835L19.9518 9.8412V10.0228H19.9965Z"/>
</mask>
<path d="M19.5956 10.0228V9.82357H19.6767V9.78299H19.4702V9.82357H19.5513V10.0228H19.5956ZM19.9965 10.0228V9.78259H19.9332L19.8604 9.94778L19.7876 9.78259H19.7242V10.0228H19.7689V9.8416L19.8372 9.99778H19.8835L19.9518 9.8412V10.0228H19.9965Z" fill="white"/>
<path d="M19.5956 10.0228V10.5489H20.1218V10.0228H19.5956ZM19.5956 9.82357V9.29742H19.0695V9.82357H19.5956ZM19.6767 9.82357V10.3497H20.2028V9.82357H19.6767ZM19.6767 9.78299H20.2028V9.25683H19.6767V9.78299ZM19.4702 9.78299V9.25683H18.9441V9.78299H19.4702ZM19.4702 9.82357H18.9441V10.3497H19.4702V9.82357ZM19.5513 9.82357H20.0775V9.29742H19.5513V9.82357ZM19.5513 10.0228H19.0252V10.5489H19.5513V10.0228ZM19.9965 10.0228V10.5489H20.5226V10.0228H19.9965ZM19.9965 9.78259H20.5226V9.25644H19.9965V9.78259ZM19.9332 9.78259V9.25644H19.5901L19.4517 9.57041L19.9332 9.78259ZM19.8604 9.94778L19.3789 10.16L19.8605 11.2524L20.3419 10.16L19.8604 9.94778ZM19.7876 9.78259L20.269 9.57036L20.1306 9.25644H19.7876V9.78259ZM19.7242 9.78259V9.25644H19.1981V9.78259H19.7242ZM19.7242 10.0228H19.1981V10.5489H19.7242V10.0228ZM19.7689 10.0228V10.5489H20.2951V10.0228H19.7689ZM19.7689 9.8416L20.251 9.63087L19.2428 9.8416H19.7689ZM19.8372 9.99778L19.3551 10.2085L19.493 10.5239H19.8372V9.99778ZM19.8835 9.99778V10.5239H20.2281L20.3659 10.2081L19.8835 9.99778ZM19.9518 9.8412H20.478L19.4695 9.63092L19.9518 9.8412ZM19.9518 10.0228H19.4257V10.5489H19.9518V10.0228ZM19.5956 10.0228H20.1218V9.82357H19.5956H19.0695V10.0228H19.5956ZM19.5956 9.82357V10.3497H19.6767V9.82357V9.29742H19.5956V9.82357ZM19.6767 9.82357H20.2028V9.78299H19.6767H19.1505V9.82357H19.6767ZM19.6767 9.78299V9.25683H19.4702V9.78299V10.3091H19.6767V9.78299ZM19.4702 9.78299H18.9441V9.82357H19.4702H19.9964V9.78299H19.4702ZM19.4702 9.82357V10.3497H19.5513V9.82357V9.29742H19.4702V9.82357ZM19.5513 9.82357H19.0252V10.0228H19.5513H20.0775V9.82357H19.5513ZM19.5513 10.0228V10.5489H19.5956V10.0228V9.4966H19.5513V10.0228ZM19.9965 10.0228H20.5226V9.78259H19.9965H19.4703V10.0228H19.9965ZM19.9965 9.78259V9.25644H19.9332V9.78259V10.3087H19.9965V9.78259ZM19.9332 9.78259L19.4517 9.57041L19.3789 9.7356L19.8604 9.94778L20.3419 10.16L20.4147 9.99477L19.9332 9.78259ZM19.8604 9.94778L20.3418 9.73555L20.269 9.57036L19.7876 9.78259L19.3061 9.99482L19.3789 10.16L19.8604 9.94778ZM19.7876 9.78259V9.25644H19.7242V9.78259V10.3087H19.7876V9.78259ZM19.7242 9.78259H19.1981V10.0228H19.7242H20.2504V9.78259H19.7242ZM19.7242 10.0228V10.5489H19.7689V10.0228V9.4966H19.7242V10.0228ZM19.7689 10.0228H20.2951V9.8416H19.7689H19.2428V10.0228H19.7689ZM19.7689 9.8416L19.2868 10.0523L19.3551 10.2085L19.8372 9.99778L20.3193 9.78705L20.251 9.63087L19.7689 9.8416ZM19.8372 9.99778V10.5239H19.8835V9.99778V9.47163H19.8372V9.99778ZM19.8835 9.99778L20.3659 10.2081L20.4341 10.0515L19.9518 9.8412L19.4695 9.63092L19.4012 9.7875L19.8835 9.99778ZM19.9518 9.8412H19.4257V10.0228H19.9518H20.478V9.8412H19.9518ZM19.9518 10.0228V10.5489H19.9965V10.0228V9.4966H19.9518V10.0228Z" fill="black" mask="url(#path-5-inside-1_2006_2489)"/>
</svg>
