<svg width="28" height="9" viewBox="0 0 28 9" fill="none" xmlns="http://www.w3.org/2000/svg">
<path fill-rule="evenodd" clip-rule="evenodd" d="M14.0346 2.87726C14.0191 4.13093 15.1225 4.83054 15.9537 5.24651C16.8077 5.67334 17.0945 5.94702 17.0913 6.32864C17.0847 6.9128 16.41 7.17053 15.7785 7.18056C14.6767 7.19812 14.0362 6.8751 13.5269 6.63075L13.1301 8.53798C13.6411 8.7799 14.5871 8.9908 15.5683 9C17.8711 9 19.3778 7.83252 19.386 6.02234C19.3949 3.72507 16.2919 3.59784 16.313 2.57096C16.3204 2.25965 16.6096 1.92737 17.2436 1.84285C17.5573 1.80021 18.4235 1.76753 19.4055 2.23199L19.7909 0.3867C19.2629 0.18917 18.5841 0 17.7391 0C15.5715 0 14.0469 1.18337 14.0346 2.87726V2.87726ZM23.4946 0.159001C23.0741 0.159001 22.7196 0.410947 22.5615 0.797577L19.2719 8.86441H21.5731L22.031 7.56468H24.8432L25.1088 8.86441H27.1371L25.3671 0.159001H23.4946ZM23.8164 2.51069L24.4805 5.77959H22.6617L23.8164 2.51069ZM11.2445 0.159001L9.4306 8.86441H11.6234L13.4365 0.159001H11.2445ZM8.00048 0.159001L5.71798 6.08422L4.79471 1.04611C4.68637 0.483758 4.25855 0.159001 3.78345 0.159001H0.0521708L0 0.411783C0.766011 0.582488 1.6363 0.857847 2.1635 1.15244C2.48616 1.33234 2.57829 1.48967 2.68419 1.91733L4.43291 8.86441H6.75048L10.3033 0.159001H8.00048Z" fill="white"/>
</svg>
