<svg width="32" height="32" viewBox="0 0 32 32" fill="none" xmlns="http://www.w3.org/2000/svg">
<g clip-path="url(#clip0_2006_1599)">
<g filter="url(#filter0_d_2006_1599)">
<path d="M23.9997 1.3335H7.99967C4.31778 1.3335 1.33301 4.31826 1.33301 8.00016V24.0002C1.33301 27.6821 4.31778 30.6668 7.99967 30.6668H23.9997C27.6816 30.6668 30.6663 27.6821 30.6663 24.0002V8.00016C30.6663 4.31826 27.6816 1.3335 23.9997 1.3335Z" stroke="white" stroke-width="1.152" stroke-linecap="round" stroke-linejoin="round"/>
<path d="M9.3335 11.3335C9.49222 13.4758 10.2137 15.5134 11.4034 17.1789C12.593 18.8444 14.1953 20.0602 16.0002 20.6668V11.3335M22.6668 11.3335C21.7779 13.5557 20.0002 15.1113 17.3335 16.0002M17.3335 16.0002C20.0002 16.8891 21.7779 18.4446 22.6668 20.6668M17.3335 16.0002H16.0002" stroke="white" stroke-width="1.152" stroke-linecap="round" stroke-linejoin="round"/>
</g>
</g>
<defs>
<filter id="filter0_d_2006_1599" x="-3.24316" y="0.757324" width="38.4854" height="38.4854" filterUnits="userSpaceOnUse" color-interpolation-filters="sRGB">
<feFlood flood-opacity="0" result="BackgroundImageFix"/>
<feColorMatrix in="SourceAlpha" type="matrix" values="0 0 0 0 0 0 0 0 0 0 0 0 0 0 0 0 0 0 127 0" result="hardAlpha"/>
<feOffset dy="4"/>
<feGaussianBlur stdDeviation="2"/>
<feComposite in2="hardAlpha" operator="out"/>
<feColorMatrix type="matrix" values="0 0 0 0 0 0 0 0 0 0 0 0 0 0 0 0 0 0 0.25 0"/>
<feBlend mode="normal" in2="BackgroundImageFix" result="effect1_dropShadow_2006_1599"/>
<feBlend mode="normal" in="SourceGraphic" in2="effect1_dropShadow_2006_1599" result="shape"/>
</filter>
<clipPath id="clip0_2006_1599">
<rect width="32" height="32" fill="white"/>
</clipPath>
</defs>
</svg>
