<svg width="50" height="50" viewBox="0 0 50 50" fill="none" xmlns="http://www.w3.org/2000/svg">
<path d="M37.5002 2.0834H12.5002C6.7472 2.0834 2.0835 6.74711 2.0835 12.5001V37.5001C2.0835 43.253 6.7472 47.9167 12.5002 47.9167H37.5002C43.2531 47.9167 47.9168 43.253 47.9168 37.5001V12.5001C47.9168 6.74711 43.2531 2.0834 37.5002 2.0834Z" stroke="white" stroke-width="1.8" stroke-linecap="round" stroke-linejoin="round"/>
<path d="M14.5835 17.7084C14.8315 21.0558 15.9588 24.2395 17.8177 26.8419C19.6765 29.4443 22.1801 31.3439 25.0002 32.2918V17.7084M35.4168 17.7084C34.0279 21.1807 31.2502 23.6112 27.0835 25.0001M27.0835 25.0001C31.2502 26.389 34.0279 28.8195 35.4168 32.2918M27.0835 25.0001H25.0002" stroke="white" stroke-width="1.8" stroke-linecap="round" stroke-linejoin="round"/>
</svg>
