<svg width="50" height="50" viewBox="0 0 50 50" fill="none" xmlns="http://www.w3.org/2000/svg">
<path d="M25.0001 2.6041C12.6199 2.61764 2.59389 12.6645 2.60744 25.0447C2.6106 28.8016 3.55879 32.4973 5.36473 35.7916L3.64598 46.3541L14.2085 44.6353C25.0522 50.5833 38.6668 46.6156 44.6147 35.7708C50.5626 24.926 46.596 11.3135 35.7512 5.36451C32.4562 3.55698 28.7583 2.6077 25.0001 2.6041ZM13.8022 12.7812H19.9064C20.1827 12.7812 20.4476 12.8909 20.643 13.0863C20.8383 13.2816 20.9481 13.5466 20.9481 13.8228C20.9139 15.212 21.1473 16.5948 21.6356 17.8958C21.8458 18.3313 21.8921 18.828 21.7658 19.2948C21.6395 19.7616 21.3492 20.1673 20.9481 20.4374L18.8126 22.5208C19.7595 24.3698 20.9975 26.0545 22.4793 27.5103C23.9234 29.0163 25.6013 30.2791 27.4481 31.2499L29.5314 29.1145C30.5731 28.0728 31.0522 28.0728 32.0731 28.427C33.374 28.9153 34.7568 29.1487 36.146 29.1145C36.4182 29.1272 36.6758 29.241 36.8685 29.4337C37.0611 29.6264 37.175 29.884 37.1876 30.1562V36.2603C37.175 36.5325 37.0611 36.7902 36.8685 36.9828C36.6758 37.1755 36.4182 37.2893 36.146 37.302C30.0185 37.0351 24.2102 34.4949 19.8543 30.177C15.5297 25.8257 12.9883 20.0147 12.7293 13.8853C12.7318 13.5986 12.8447 13.3239 13.0445 13.1182C13.2443 12.9126 13.5157 12.7919 13.8022 12.7812Z" stroke="white" stroke-width="1.8" stroke-linecap="round" stroke-linejoin="round"/>
</svg>
