<svg width="32" height="32" viewBox="0 0 32 32" fill="none" xmlns="http://www.w3.org/2000/svg">
<path d="M16.0003 1.6665C8.07695 1.67517 1.66029 8.10517 1.66895 16.0285C1.67098 18.4329 2.27782 20.7981 3.43362 22.9065L2.33362 29.6665L9.09362 28.5665C16.0336 32.3732 24.747 29.8338 28.5536 22.8932C32.3603 15.9525 29.8216 7.2405 22.881 3.43317C20.7722 2.27635 18.4055 1.66881 16.0003 1.6665ZM8.83362 8.17984H12.7403C12.9171 8.17984 13.0867 8.25008 13.2117 8.3751C13.3367 8.50012 13.407 8.66969 13.407 8.8465C13.3851 9.73557 13.5345 10.6205 13.847 11.4532C13.9815 11.7319 14.0111 12.0498 13.9303 12.3486C13.8495 12.6473 13.6637 12.907 13.407 13.0798L12.0403 14.4132C12.6463 15.5965 13.4386 16.6747 14.387 17.6065C15.3112 18.5703 16.385 19.3785 17.567 19.9998L18.9003 18.6332C19.567 17.9665 19.8736 17.9665 20.527 18.1932C21.3596 18.5057 22.2446 18.655 23.1336 18.6332C23.3078 18.6413 23.4727 18.7141 23.596 18.8374C23.7193 18.9607 23.7922 19.1256 23.8003 19.2998V23.2065C23.7922 23.3807 23.7193 23.5456 23.596 23.6689C23.4727 23.7922 23.3078 23.8651 23.1336 23.8732C19.212 23.7023 15.4947 22.0766 12.707 19.3132C9.9392 16.5283 8.31271 12.8093 8.14695 8.8865C8.14854 8.703 8.22079 8.52717 8.34867 8.39556C8.47655 8.26395 8.65024 8.18669 8.83362 8.17984Z" stroke="white" stroke-width="1.152" stroke-linecap="round" stroke-linejoin="round"/>
</svg>
