<svg width="12" height="12" viewBox="0 0 12 12" fill="none" xmlns="http://www.w3.org/2000/svg">
<path fill-rule="evenodd" clip-rule="evenodd" d="M9.61084 1.6351C9.09193 1.11526 8.47453 0.703059 7.79441 0.422388C7.11429 0.141718 6.38497 -0.00184451 5.6487 1.78904e-05C2.56135 1.78904e-05 0.0480449 2.50077 0.0467969 5.57471C0.0467969 6.55713 0.304492 7.51595 0.794299 8.36174L0 11.25L2.96942 10.4744C3.7908 10.9194 4.71101 11.1527 5.6462 11.1531H5.6487C8.73542 11.1531 11.2487 8.65237 11.25 5.57843C11.2521 4.84596 11.1083 4.12033 10.827 3.44348C10.5456 2.76664 10.1323 2.152 9.61084 1.6351ZM5.6487 10.2123H5.64683C4.81292 10.2124 3.99435 9.98911 3.27703 9.56586L3.10731 9.46526L1.34526 9.92541L1.8151 8.21581L1.70466 8.04069C1.23843 7.30196 0.991616 6.44707 0.992718 5.57471C0.993966 3.01993 3.08236 0.941449 5.65057 0.941449C6.26221 0.940097 6.86804 1.05949 7.433 1.29272C7.99797 1.52594 8.51085 1.86838 8.94195 2.30019C9.37537 2.72995 9.7189 3.24094 9.9527 3.80362C10.1865 4.36631 10.3059 4.96954 10.3041 5.57843C10.3028 8.13322 8.21442 10.2123 5.6487 10.2123ZM8.20256 6.74156C8.06217 6.67139 7.37457 6.33481 7.24603 6.28823C7.11812 6.24166 7.02515 6.21868 6.93156 6.35779C6.83796 6.49689 6.56966 6.81049 6.48792 6.90364C6.40618 6.99679 6.32445 7.00797 6.18468 6.93842C6.04491 6.86887 5.59379 6.72169 5.05906 6.24725C4.64288 5.87776 4.3621 5.42194 4.28036 5.28222C4.19862 5.14249 4.27162 5.06735 4.34213 4.9978C4.40515 4.9357 4.4819 4.8351 4.55178 4.75375C4.62166 4.6724 4.64475 4.61465 4.69155 4.5215C4.73834 4.42835 4.71526 4.347 4.67969 4.27745C4.64475 4.20727 4.36459 3.52169 4.24791 3.24286C4.13497 2.97273 4.01954 3.00875 3.93344 3.00502C3.84426 3.00139 3.75501 2.99974 3.66576 3.00005C3.59479 3.00185 3.52495 3.01823 3.46064 3.04815C3.39632 3.07807 3.33891 3.12089 3.29201 3.17393C3.16347 3.31366 2.8022 3.65024 2.8022 4.33582C2.8022 5.0214 3.30386 5.684 3.37374 5.77715C3.44363 5.8703 4.36085 7.27686 5.76476 7.88047C6.0992 8.02392 6.36001 8.10962 6.5628 8.1742C6.89786 8.28039 7.20298 8.26487 7.44445 8.22947C7.71338 8.18973 8.27244 7.89289 8.38913 7.56749C8.50581 7.24209 8.50581 6.96326 8.47086 6.90488C8.43592 6.84651 8.3417 6.81111 8.20256 6.74156Z" fill="white"/>
</svg>
