<svg width="22" height="22" viewBox="0 0 22 22" fill="none" xmlns="http://www.w3.org/2000/svg">
<g clip-path="url(#clip0_357_4469)">
<mask id="mask0_357_4469" style="mask-type:luminance" maskUnits="userSpaceOnUse" x="0" y="0" width="22" height="22">
<path d="M10.9412 0H11.0841C17.1128 0 21.9999 4.91906 21.9999 10.987C21.9999 17.055 17.1128 21.9741 11.0841 21.9741H10.9412C4.91256 21.9741 0.0253906 17.055 0.0253906 10.987C0.0253904 4.91906 4.91256 0 10.9412 0Z" fill="white"/>
</mask>
<g mask="url(#mask0_357_4469)">
<path d="M11.0128 10.987L18.7718 18.8171L18.521 19.0442C16.3838 21.0354 13.5434 22.0961 10.6245 21.9931C7.70553 21.8901 4.94686 20.6317 2.95553 18.4948C0.964209 16.3579 -0.0962451 13.5176 0.00687447 10.5986C0.109526 7.67956 1.36786 4.92107 3.50504 2.92985C6.75377 1.2818 14.8584 -0.996177 18.9697 3.39864L11.0128 10.987Z" fill="#01B94F"/>
<path d="M3.51702 2.92999C6.80245 1.22883 14.8597 -0.996044 18.978 3.39694C18.978 3.39694 11.2357 10.8205 10.9811 11.0146C10.9686 11.0238 12.1387 12.2287 12.1238 12.2397L18.7601 18.7843L18.5056 19.0095C13.9953 23.0015 7.07326 22.855 2.96612 18.4455C0.994778 16.3086 -0.0536055 13.4799 0.0499749 10.5744C0.153094 7.66889 1.39935 4.92166 3.51702 2.92999Z" fill="url(#paint0_radial_357_4469)"/>
<path d="M3.52192 2.91719C6.81802 1.17025 14.8516 -0.994194 18.9773 3.39695C18.9773 3.39695 11.4547 10.6557 10.9456 11.0439C10.9196 11.0622 12.0441 12.247 12.0186 12.269L18.7464 18.7513L18.49 18.9784C13.9909 22.9557 7.07071 22.7982 2.97427 18.4052C-1.12218 14.0122 -0.889929 7.00986 3.52192 2.91719Z" fill="url(#paint1_radial_357_4469)"/>
<path d="M3.5264 2.91333C6.85549 1.11329 14.8579 -0.992558 18.9762 3.39676C18.9762 3.39676 11.6733 10.4907 10.919 11.073C10.8804 11.1023 11.9646 12.2669 11.9223 12.2981L18.7403 18.72L18.4857 18.9452C13.9972 22.9097 7.07892 22.7431 2.99176 18.3629C-1.09586 13.9828 -0.872435 6.99317 3.5264 2.91333Z" fill="url(#paint2_radial_357_4469)"/>
<path d="M3.53178 2.90807C6.88688 1.05493 14.8582 -0.992321 18.9765 3.397C18.9853 3.40798 11.8952 10.328 10.8751 11.1026C10.824 11.141 11.8659 12.2855 11.8092 12.3276C11.8092 12.3276 18.7182 18.6873 18.7182 18.6891L18.4637 18.9143C13.9845 22.866 7.06803 22.6884 2.99157 18.321C-1.08445 13.9537 -0.859163 6.97509 3.53178 2.90807Z" fill="url(#paint3_radial_357_4469)"/>
<path d="M3.53594 2.90426C6.91983 0.998005 14.847 -0.990647 18.9783 3.39684C18.9895 3.40966 12.1148 10.1722 10.8384 11.1317C10.7761 11.1793 11.7744 12.3055 11.7047 12.3567C11.7047 12.3567 18.7057 18.656 18.7038 18.6578L18.4511 18.8812C13.9826 22.8201 7.06801 22.6333 3.00083 18.2806C-1.06589 13.9279 -0.846181 6.95847 3.53594 2.90426Z" fill="url(#paint4_radial_357_4469)"/>
<path d="M3.54031 2.89878C6.95208 0.939424 14.8444 -0.9888 18.9776 3.39686C18.9906 3.41334 12.3338 9.99824 10.8033 11.161C10.728 11.2196 11.684 12.3238 11.5994 12.3879L18.6901 18.6249L18.4355 18.8501C13.9781 22.7743 7.06542 22.5802 3.00752 18.2385C-1.05037 13.8968 -0.834376 6.94202 3.54031 2.89878Z" fill="url(#paint5_radial_357_4469)"/>
<path d="M3.547 2.89512C6.98431 0.880828 14.8437 -0.986967 18.9787 3.39686C18.9954 3.41517 12.5551 9.83526 10.7695 11.1903C10.6818 11.2581 11.5954 12.344 11.5021 12.4172C11.5021 12.4172 18.6837 18.5919 18.6819 18.5937L18.4292 18.8172C13.9834 22.7286 7.07582 22.5253 3.0235 18.1964C-1.02929 13.8675 -0.822118 6.9237 3.547 2.89512Z" fill="url(#paint6_radial_357_4469)"/>
<path d="M3.5527 2.88956C7.01743 0.824005 14.8438 -0.985195 18.9788 3.3968C18.9974 3.41877 12.7763 9.67038 10.7386 11.2196C10.6378 11.2965 11.5073 12.3622 11.3958 12.4465C11.3958 12.4465 18.6695 18.5607 18.6676 18.5626L18.4149 18.786C13.978 22.6827 7.06155 22.4703 3.03246 18.1542C-0.996169 13.8382 -0.808975 6.90717 3.5527 2.88956Z" fill="url(#paint7_radial_357_4469)"/>
<path d="M3.55828 2.88595C7.04855 0.765455 14.842 -0.985144 18.9807 3.39685C18.9988 3.42249 12.9965 9.50562 10.7 11.2489C10.5867 11.3368 11.4139 12.3824 11.2876 12.4758C11.2876 12.4758 18.6528 18.5278 18.649 18.5315L18.3982 18.7549C13.9724 22.637 7.06342 22.4173 3.03618 18.114C-0.99059 13.8107 -0.796429 6.89071 3.55828 2.88595Z" fill="url(#paint8_radial_357_4469)"/>
<path d="M3.56222 2.88057C7.08175 0.706966 14.8403 -0.983209 18.9809 3.39696C19.0027 3.42442 13.216 9.34096 10.6654 11.271C10.539 11.368 11.3245 12.3935 11.1838 12.4997C11.1838 12.4997 18.6386 18.4895 18.6367 18.4913L18.384 18.7147C13.9689 22.584 7.06317 22.3533 3.04569 18.0647C-0.972258 13.776 -0.783207 6.87435 3.56222 2.88057Z" fill="url(#paint9_radial_357_4469)"/>
<path d="M3.56665 2.87494C7.1122 0.650065 14.8378 -0.981509 18.9802 3.39682C19.0039 3.42795 13.4369 9.17784 10.6299 11.3093C10.4905 11.4137 11.2323 12.4208 11.0786 12.5362C11.0786 12.5362 18.6249 18.4655 18.6212 18.4674C18.6175 18.4692 18.3922 18.6706 18.3703 18.6908C13.9664 22.5454 7.06064 22.3055 3.0543 18.0297C-0.952492 13.7539 -0.771336 6.85588 3.56665 2.87494Z" fill="url(#paint10_radial_357_4469)"/>
<path d="M3.57224 2.87148C7.14472 0.591669 14.8378 -0.973983 18.9798 3.39702C19.0072 3.42998 13.6566 9.01322 10.5946 11.3388C10.4427 11.4523 11.1441 12.4375 10.9736 12.5657C10.9736 12.5657 18.6119 18.4255 18.6082 18.4365L18.3573 18.658C13.9622 22.5035 7.06065 22.2508 3.06128 17.9896C-0.938087 13.7285 -0.758787 6.83962 3.57224 2.87148Z" fill="url(#paint11_radial_357_4469)"/>
<path d="M3.57836 2.86588C7.17686 0.534799 14.837 -0.979578 18.9808 3.39692C19.0101 3.43355 13.8773 8.84834 10.5575 11.368C10.3945 11.4925 11.0499 12.4667 10.8669 12.5949C10.8669 12.5949 18.5962 18.4015 18.5906 18.4052L18.3379 18.6268C13.9544 22.4539 7.05423 22.1976 3.06601 17.9474C-0.922668 13.6973 -0.746622 6.82303 3.57836 2.86588Z" fill="url(#paint12_radial_357_4469)"/>
<path d="M3.58315 2.86223C7.20905 0.48171 14.8339 -0.98323 18.9819 3.39693C19.013 3.43539 14.0962 8.68353 10.5251 11.3973C10.3421 11.531 10.9613 12.4777 10.7653 12.6242C10.7653 12.6242 18.5843 18.3686 18.5805 18.3723L18.3371 18.5938C13.9643 22.41 7.06599 22.1426 3.08706 17.9053C-0.892334 13.668 -0.734865 6.80658 3.58315 2.86223Z" fill="url(#paint13_radial_357_4469)"/>
<path d="M3.58713 2.85662C7.24973 0.417501 14.8327 -0.976021 18.9821 3.40597C19.0151 3.44809 14.3181 8.53325 10.491 11.4357C10.3075 11.5785 10.8719 12.5069 10.661 12.6644C10.661 12.6644 18.572 18.341 18.5683 18.3501L18.3174 18.5718C13.9539 22.3733 7.05743 22.0967 3.08918 17.8741C-0.906469 13.6129 -0.7216 6.78814 3.58713 2.85662Z" fill="url(#paint14_radial_357_4469)"/>
<path d="M3.59278 2.85312C7.27349 0.360892 14.8328 -0.974032 18.9748 3.40247C19.0115 3.44642 14.5309 8.36129 10.4488 11.4596C10.2472 11.6135 10.7731 12.5199 10.5496 12.6884C10.5496 12.6884 18.5521 18.31 18.5465 18.3137L18.2975 18.5335C13.9447 22.3221 7.05007 22.0365 3.09854 17.8266C-0.890135 13.5838 -0.706662 6.77547 3.59278 2.85312Z" fill="url(#paint15_radial_357_4469)"/>
<path d="M3.59789 2.84753C7.30601 0.302204 14.8305 -0.972292 18.9804 3.39689C19.0184 3.44449 14.7557 8.19089 10.4191 11.4852C10.205 11.6482 10.6885 12.5362 10.4502 12.7139C10.4502 12.7139 18.5423 18.2733 18.5391 18.2788L18.2896 18.4949C13.9424 22.2726 7.05518 21.9741 3.10552 17.7807C-0.873877 13.5507 -0.695974 6.75524 3.59789 2.84753Z" fill="url(#paint16_radial_357_4469)"/>
<path d="M3.60264 2.84214C7.33678 0.245536 14.8283 -0.970361 18.9851 3.39149C19.0251 3.44276 14.9783 8.02253 10.3876 11.5091C10.1605 11.6812 10.6018 12.5492 10.3491 12.7378C10.3491 12.7378 18.5327 18.2313 18.5271 18.2405C18.4923 18.2734 18.313 18.4236 18.2781 18.4602C13.9471 22.2214 7.05669 21.9174 3.11584 17.7277C-0.857971 13.5233 -0.686107 6.73887 3.60264 2.84214Z" fill="url(#paint17_radial_357_4469)"/>
<path d="M3.60929 2.83838C7.37037 0.183185 14.827 -0.970455 18.9839 3.39689C19.0261 3.45 15.1991 7.86313 10.3515 11.5438C10.1119 11.7269 10.509 12.5747 10.2438 12.7725C10.2438 12.7725 18.5189 18.2111 18.5133 18.2147L18.2643 18.4345C13.9426 22.1811 7.05357 21.8679 3.12389 17.702C-0.840646 13.4921 -0.672028 6.72048 3.60929 2.83838Z" fill="url(#paint18_radial_357_4469)"/>
<path d="M3.61244 2.83276C7.40092 0.128124 14.8269 -0.96875 18.9838 3.39677C19.0274 3.45353 15.4182 7.69818 10.3166 11.573C10.0639 11.7561 10.4188 12.5929 10.1331 12.8035C10.1331 12.8035 18.4984 18.178 18.4928 18.1835L18.2457 18.4014C13.942 22.1351 7.05301 21.8147 3.13818 17.6561C-0.822632 13.4627 -0.660053 6.70387 3.61244 2.83276Z" fill="url(#paint19_radial_357_4469)"/>
<path d="M3.61776 2.82929C7.43412 0.0715474 14.8248 -0.966728 18.9835 3.39879C19.0313 3.45555 15.6382 7.53357 10.2815 11.6024C10.0163 11.8039 10.3294 12.6132 10.0344 12.833C10.0344 12.833 18.4911 18.1434 18.4856 18.1525L18.2366 18.3704C13.9423 22.0896 7.05136 21.76 3.13793 17.616C-0.806161 13.4318 -0.646836 6.68757 3.61776 2.82929Z" fill="url(#paint20_radial_357_4469)"/>
<path d="M3.62356 2.82377C7.46918 0.0129193 14.8237 -0.964928 18.9856 3.39876C19.0334 3.45918 15.8581 7.37055 10.2474 11.639C9.96913 11.8514 10.2474 12.6389 9.93058 12.8696C9.93058 12.8696 18.4784 18.1214 18.4714 18.1287L18.2238 18.3448C13.9425 22.0438 7.05159 21.705 3.15116 17.5793C-0.789675 13.4024 -0.633603 6.67108 3.62356 2.82377Z" fill="url(#paint21_radial_357_4469)"/>
<path d="M3.63031 2.82005C7.49962 -0.0439083 14.8225 -0.963157 18.9868 3.39869C19.0379 3.46096 16.0808 7.2057 10.2132 11.661C9.92246 11.8825 10.1491 12.6516 9.82724 12.8915C9.82724 12.8915 18.4647 18.0829 18.4596 18.0884L18.212 18.3118C13.9325 22.0052 7.05091 21.6555 3.15977 17.5372C-0.772244 13.3676 -0.619885 6.6527 3.63031 2.82005Z" fill="url(#paint22_radial_357_4469)"/>
<path d="M3.63499 2.81448C7.53403 -0.10258 14.8221 -0.96323 18.9863 3.39862C19.0393 3.46454 16.2996 7.04082 10.178 11.692C9.87419 11.9209 10.0572 12.6698 9.72043 12.9207C9.72043 12.9207 18.4517 18.048 18.4443 18.0572L18.199 18.2732C13.9284 21.9539 7.04861 21.595 3.16817 17.4913C-0.75595 13.34 -0.609637 6.63612 3.63499 2.81448Z" fill="url(#paint23_radial_357_4469)"/>
<path d="M3.6406 2.81091C7.56332 -0.161079 14.8202 -0.961299 18.9864 3.39872C19.043 3.46647 16.5194 6.87796 10.1432 11.7214C9.82638 11.9613 9.96015 12.6901 9.61596 12.9519C9.61596 12.9519 18.4387 18.0188 18.4313 18.0261L18.1842 18.2422C13.9265 21.9045 7.04865 21.5383 3.17748 17.4493C-0.73781 13.3108 -0.5966 6.61974 3.6406 2.81091Z" fill="url(#paint24_radial_357_4469)"/>
<path d="M3.64355 2.80541C7.59507 -0.217851 14.8139 -0.959473 18.987 3.39871C19.0441 3.47013 16.7402 6.71313 10.1076 11.7507C9.77823 11.9997 9.87717 12.7084 9.51068 12.9813C9.51068 12.9813 18.4231 17.9876 18.4156 17.995C18.3664 18.0389 18.222 18.1671 18.1704 18.2092C13.9221 21.8716 7.04603 21.487 3.18555 17.4072C-0.722312 13.2797 -0.584823 6.60326 3.64355 2.80541Z" fill="url(#paint25_radial_357_4469)"/>
<path d="M3.65035 2.79997C7.62788 -0.276396 14.8207 -0.957591 18.9887 3.39877C19.0491 3.47201 16.9616 6.54836 10.0744 11.7801C9.73208 12.0382 9.78689 12.7268 9.40786 13.0106C9.40786 13.0106 18.4118 17.9547 18.4043 17.9547L18.1554 18.1782C13.9219 21.8167 7.04725 21.4248 3.19653 17.3669C-0.706223 13.2505 -0.570585 6.59231 3.65035 2.79997Z" fill="url(#paint26_radial_357_4469)"/>
<path d="M3.65532 2.79625C7.66027 -0.335059 14.8257 -0.955824 18.9881 3.3987C19.0503 3.47561 17.1807 6.38351 10.039 11.8093C9.6855 12.0784 9.69665 12.7468 9.30646 13.0398C9.30646 13.0398 18.4019 17.9235 18.3931 17.9309C18.3396 17.9803 18.2096 18.0993 18.1473 18.147C13.9208 21.7709 7.04852 21.3772 3.20847 17.3248C-0.688241 13.2193 -0.558181 6.56846 3.65532 2.79625Z" fill="url(#paint27_radial_357_4469)"/>
<path d="M3.66064 2.79077C7.68927 -0.391803 14.8143 -0.955804 18.9878 3.39872C19.0519 3.4793 17.4002 6.22607 10.0039 11.8386C9.63739 12.1169 9.60627 12.7652 9.19797 13.0691C9.19797 13.0691 18.3835 17.8924 18.3761 17.8998L18.1308 18.114C13.9192 21.7251 7.04454 21.3223 3.21193 17.2827C-0.672241 13.1845 -0.545895 6.55199 3.66064 2.79077Z" fill="url(#paint28_radial_357_4469)"/>
<path d="M3.66639 2.78725C7.71732 -0.450263 14.8131 -0.953837 18.9885 3.39886C19.0563 3.48126 17.6224 6.05589 9.96969 11.868C9.59066 12.1555 9.51541 12.7836 9.0941 13.1004C9.0941 13.1004 18.3711 17.8615 18.3619 17.8615L18.1185 18.083C13.9068 21.6813 7.04332 21.2675 3.2214 17.2425C-0.653021 13.159 -0.534103 6.53567 3.66639 2.78725Z" fill="url(#paint29_radial_357_4469)"/>
<path d="M3.67063 2.78163C7.75593 -0.514484 14.8117 -0.952133 18.9904 3.39873C19.0582 3.4848 17.8421 5.89098 9.93537 11.8972C9.54891 12.1957 9.42627 12.8036 8.9994 13.1296C8.9994 13.1296 18.3679 17.8284 18.3587 17.8357C18.2983 17.8906 18.1756 17.9987 18.1153 18.0499C13.918 21.6354 7.05267 21.2124 3.24049 17.2003C-0.63624 13.1296 -0.5229 6.51724 3.67063 2.78163Z" fill="url(#paint30_radial_357_4469)"/>
<path d="M3.67543 2.77796C7.78861 -0.56576 14.8114 -0.950306 18.9901 3.39873C19.0616 3.48663 18.0615 5.72616 9.89977 11.9265C9.49519 12.2341 9.33586 12.8238 8.88529 13.1589C8.88529 13.1589 18.3435 17.7973 18.3347 17.8046C18.2743 17.8613 18.1512 17.9639 18.0908 18.0188C13.9066 21.5896 7.04122 21.1574 3.23973 17.1581C-0.62028 13.0985 -0.508804 6.50072 3.67543 2.77796Z" fill="url(#paint31_radial_357_4469)"/>
<path d="M3.68888 2.77241C7.82898 -0.624418 14.817 -0.948536 18.9979 3.39867C19.0709 3.49022 18.2891 5.5631 9.8728 11.9557C9.44778 12.2689 9.24479 12.842 8.78122 13.1845C8.78122 13.1845 18.3314 17.7624 18.3221 17.7624C18.258 17.8192 18.1391 17.9199 18.0787 17.9748C13.9033 21.5328 7.04166 21.0878 3.24574 17.1068C-0.603591 13.0691 -0.495361 6.48419 3.68888 2.77241Z" fill="url(#paint32_radial_357_4469)"/>
<path d="M3.68787 2.76692C7.85214 -0.681179 14.8071 -0.948528 18.9895 3.39867C19.0666 3.49206 18.5023 5.39833 9.83324 11.985C9.40311 12.311 9.15785 12.8622 8.67988 13.2174C8.67988 13.2174 18.3211 17.7331 18.3099 17.7422C18.2458 17.8008 18.1269 17.8979 18.0684 17.9546C13.8986 21.498 7.03926 21.0585 3.25589 17.0757C-0.58787 13.038 -0.483361 6.46772 3.68787 2.76692Z" fill="url(#paint33_radial_357_4469)"/>
<path d="M3.68877 2.76325C7.88602 -0.73246 14.8062 -0.946707 18.9923 3.39866C19.0689 3.49572 18.7229 5.22984 9.79559 12.0143C9.35246 12.3513 9.06353 12.8805 8.57256 13.2486C8.57256 13.2486 18.3034 17.7001 18.2946 17.7093C18.2268 17.7715 18.1111 17.8631 18.0526 17.9217C13.8976 21.4522 7.0397 20.9944 3.26561 17.0299C-0.568857 13.0013 -0.469912 6.4494 3.68877 2.76325Z" fill="url(#paint34_radial_357_4469)"/>
<path d="M3.68778 2.75789C7.90871 -0.796414 14.7977 -0.944739 18.9838 3.3988C19.0647 3.49769 18.9346 5.06884 9.75279 12.0438C9.29665 12.3899 8.96545 12.9008 8.46008 13.278C8.46008 13.278 18.2824 17.6728 18.2718 17.6728C18.2039 17.7351 18.1013 17.8248 18.0298 17.8852C13.8859 21.401 7.02988 20.9341 3.26647 16.9861C-0.553127 12.9777 -0.459767 6.43306 3.68778 2.75789Z" fill="url(#paint35_radial_357_4469)"/>
<path d="M3.70139 2.74672C7.95019 -0.862522 14.8044 -0.950418 18.9923 3.39129C19.0746 3.49384 19.1624 4.89835 9.72645 12.0655C9.25731 12.4208 8.88385 12.9115 8.3636 13.2998C8.3636 13.2998 18.2779 17.6305 18.2668 17.6397C18.1957 17.7037 18.0986 17.788 18.0253 17.8502C13.8921 21.3551 7.03792 20.8771 3.28427 16.9346C-0.535801 12.9482 -0.446148 6.40905 3.70139 2.74672Z" fill="url(#paint36_radial_357_4469)"/>
<path d="M3.70727 2.74687C7.98116 -0.915475 14.8028 -0.941114 18.9927 3.39876C19.0786 3.50497 19.3842 4.74102 9.69192 12.1042C9.21023 12.4704 8.79265 12.9392 8.25986 13.3365C8.25986 13.3365 18.2639 17.605 18.2527 17.616C18.1812 17.6819 18.0878 17.7625 18.0126 17.8266C13.8887 21.3168 7.03636 20.8297 3.2934 16.911C-0.522948 12.9172 -0.432835 6.40922 3.70727 2.74687Z" fill="url(#paint37_radial_357_4469)"/>
<path d="M3.71216 2.74679C8.01346 -0.970492 14.8003 -0.941192 18.9938 3.39869C19.0798 3.50672 19.6033 4.57613 9.65454 12.1334C9.16171 12.4996 8.70232 12.9574 8.15467 13.3676C8.15467 13.3676 18.2502 17.5793 18.239 17.5793C18.1642 17.647 18.076 17.7258 17.9993 17.7899C13.8899 21.2691 7.03568 20.771 3.30201 16.8633C-0.503195 12.8878 -0.420977 6.38167 3.71216 2.74679Z" fill="url(#paint38_radial_357_4469)"/>
<path d="M3.71804 2.74689C5.86683 0.885693 8.64641 -0.0829142 11.4868 0.0396589C14.3273 0.162232 17.013 1.3667 18.9941 3.40611C19.0819 3.51782 19.8233 4.41875 9.62002 12.1701C9.11463 12.5528 8.61297 12.985 8.05045 13.4043C8.05045 13.4043 18.2375 17.5483 18.2268 17.5592C18.1497 17.6288 18.0656 17.7021 17.9848 17.7698C13.8846 21.2363 7.03413 20.729 3.30975 16.8341C-0.484778 12.8568 -0.407671 6.36529 3.71804 2.74689Z" fill="url(#paint39_radial_357_4469)"/>
<path d="M18.2119 17.5207C14.1517 21.1995 7.10708 20.7436 3.3186 16.7882C-0.470349 12.8329 -0.395105 6.35055 3.72132 2.73948C5.86454 0.866318 8.64644 -0.109827 11.4901 0.0136012C14.3338 0.13703 17.021 1.35056 18.9937 3.40236C19.0889 3.52139 20.142 4.31795 7.94597 13.4298C7.94597 13.4262 18.2226 17.5097 18.2119 17.5207Z" fill="url(#paint40_radial_357_4469)"/>
<path d="M14.2462 8.52051C12.7245 9.7785 10.7285 11.3533 8.11523 13.2999C10.1316 15.391 12.2944 17.0831 14.2443 18.0994C16.1948 19.1157 17.7513 19.3244 18.4876 18.6597C19.2233 17.995 19.1393 16.4623 18.2567 14.47C17.4401 12.615 16.028 10.5293 14.2462 8.52051Z" fill="url(#paint41_linear_357_4469)"/>
<path d="M14.4038 8.39038L14.3582 8.42886L13.9239 8.78956C15.5994 10.683 16.9915 12.7541 17.7533 14.49C18.5899 16.3981 18.7529 17.7184 18.2108 18.211C17.6084 18.7603 16.0792 18.5186 14.3197 17.5975C12.4775 16.6343 10.4193 15.0046 8.50922 13.0013L7.94531 13.4243C11.9739 17.6121 16.396 20.0165 18.3116 19.1412C18.3669 19.1148 18.4208 19.0855 18.4728 19.0533L18.4946 19.0405C18.5676 18.9943 18.6363 18.9416 18.6999 18.883C18.7664 18.8218 18.8277 18.755 18.883 18.6834C20.1171 17.0555 18.1997 12.6643 14.4038 8.39038Z" fill="url(#paint42_linear_357_4469)"/>
</g>
</g>
<defs>
<radialGradient id="paint0_radial_357_4469" cx="0" cy="0" r="1" gradientTransform="matrix(48.3658 -1.93459 -1.41313 -35.7916 13.7314 1.98956)" gradientUnits="userSpaceOnUse">
<stop stop-color="#03BA50"/>
<stop offset="0.8" stop-color="#01B64E"/>
</radialGradient>
<radialGradient id="paint1_radial_357_4469" cx="0" cy="0" r="1" gradientTransform="matrix(48.3017 -1.93203 -1.41126 -35.7441 13.7247 1.97004)" gradientUnits="userSpaceOnUse">
<stop stop-color="#04BC50"/>
<stop offset="0.8" stop-color="#01B34D"/>
</radialGradient>
<radialGradient id="paint2_radial_357_4469" cx="0" cy="0" r="1" gradientTransform="matrix(48.2377 -1.92947 -1.40939 -35.6967 13.7185 1.95022)" gradientUnits="userSpaceOnUse">
<stop stop-color="#06BD51"/>
<stop offset="0.72" stop-color="#02B24C"/>
<stop offset="0.8" stop-color="#01B04B"/>
</radialGradient>
<radialGradient id="paint3_radial_357_4469" cx="0" cy="0" r="1" gradientTransform="matrix(48.1736 -1.9269 -1.40751 -35.6493 13.7095 1.9325)" gradientUnits="userSpaceOnUse">
<stop stop-color="#08BF52"/>
<stop offset="0.56" stop-color="#04B44D"/>
<stop offset="0.8" stop-color="#01AD4A"/>
</radialGradient>
<radialGradient id="paint4_radial_357_4469" cx="0" cy="0" r="1" gradientTransform="matrix(48.1114 -1.92442 -1.40569 -35.6032 13.7006 1.91736)" gradientUnits="userSpaceOnUse">
<stop stop-color="#0AC053"/>
<stop offset="0.48" stop-color="#05B54E"/>
<stop offset="0.8" stop-color="#01AA49"/>
</radialGradient>
<radialGradient id="paint5_radial_357_4469" cx="0" cy="0" r="1" gradientTransform="matrix(48.0474 -1.92186 -1.40382 -35.5558 13.6874 1.90415)" gradientUnits="userSpaceOnUse">
<stop stop-color="#0BC253"/>
<stop offset="0.42" stop-color="#07B74E"/>
<stop offset="0.8" stop-color="#01A848"/>
</radialGradient>
<radialGradient id="paint6_radial_357_4469" cx="0" cy="0" r="1" gradientTransform="matrix(47.985 -1.43952 -1.0518 -35.5198 13.6759 1.95253)" gradientUnits="userSpaceOnUse">
<stop stop-color="#0DC354"/>
<stop offset="0.37" stop-color="#08B84F"/>
<stop offset="0.8" stop-color="#01A546"/>
</radialGradient>
<radialGradient id="paint7_radial_357_4469" cx="0" cy="0" r="1" gradientTransform="matrix(47.9228 -1.43765 -1.05044 -35.4737 13.6598 1.9309)" gradientUnits="userSpaceOnUse">
<stop stop-color="#0FC555"/>
<stop offset="0.33" stop-color="#0ABA50"/>
<stop offset="0.8" stop-color="#01A245"/>
</radialGradient>
<radialGradient id="paint8_radial_357_4469" cx="0" cy="0" r="1" gradientTransform="matrix(48.3374 -1.43574 -1.03824 -35.4123 13.9065 1.91401)" gradientUnits="userSpaceOnUse">
<stop stop-color="#11C656"/>
<stop offset="0.3" stop-color="#0CBB51"/>
<stop offset="0.8" stop-color="#019F44"/>
</radialGradient>
<radialGradient id="paint9_radial_357_4469" cx="0" cy="0" r="1" gradientTransform="matrix(48.2742 -1.43386 -1.03689 -35.3662 13.903 1.89865)" gradientUnits="userSpaceOnUse">
<stop stop-color="#12C856"/>
<stop offset="0.28" stop-color="#0EBD51"/>
<stop offset="0.77" stop-color="#029E44"/>
<stop offset="0.8" stop-color="#019C43"/>
</radialGradient>
<radialGradient id="paint10_radial_357_4469" cx="0" cy="0" r="1" gradientTransform="matrix(48.2116 -1.432 -1.03554 -35.3201 13.8981 1.88326)" gradientUnits="userSpaceOnUse">
<stop stop-color="#14C957"/>
<stop offset="0.26" stop-color="#0FBE52"/>
<stop offset="0.72" stop-color="#049F44"/>
<stop offset="0.8" stop-color="#019941"/>
</radialGradient>
<radialGradient id="paint11_radial_357_4469" cx="0" cy="0" r="1" gradientTransform="matrix(48.1489 -1.43014 -1.03418 -35.2741 13.8907 1.87092)" gradientUnits="userSpaceOnUse">
<stop stop-color="#16CB58"/>
<stop offset="0.24" stop-color="#11C053"/>
<stop offset="0.66" stop-color="#06A145"/>
<stop offset="0.8" stop-color="#019640"/>
</radialGradient>
<radialGradient id="paint12_radial_357_4469" cx="0" cy="0" r="1" gradientTransform="matrix(48.0857 -1.42826 -1.03283 -35.228 13.8843 1.86162)" gradientUnits="userSpaceOnUse">
<stop stop-color="#18CC59"/>
<stop offset="0.23" stop-color="#13C154"/>
<stop offset="0.62" stop-color="#07A246"/>
<stop offset="0.8" stop-color="#01933F"/>
</radialGradient>
<radialGradient id="paint13_radial_357_4469" cx="0" cy="0" r="1" gradientTransform="matrix(48.023 -1.4264 -1.03148 -35.1819 13.8723 1.85522)" gradientUnits="userSpaceOnUse">
<stop stop-color="#19CD59"/>
<stop offset="0.21" stop-color="#15C254"/>
<stop offset="0.59" stop-color="#09A347"/>
<stop offset="0.8" stop-color="#01903E"/>
</radialGradient>
<radialGradient id="paint14_radial_357_4469" cx="0" cy="0" r="1" gradientTransform="matrix(47.9618 -1.42458 -1.03017 -35.1372 13.8596 1.84861)" gradientUnits="userSpaceOnUse">
<stop stop-color="#1BCF5A"/>
<stop offset="0.2" stop-color="#17C455"/>
<stop offset="0.56" stop-color="#0BA547"/>
<stop offset="0.8" stop-color="#018D3C"/>
</radialGradient>
<radialGradient id="paint15_radial_357_4469" cx="0" cy="0" r="1" gradientTransform="matrix(47.8991 -1.42272 -1.02882 -35.0911 13.8471 1.85319)" gradientUnits="userSpaceOnUse">
<stop stop-color="#1DD05B"/>
<stop offset="0.19" stop-color="#18C556"/>
<stop offset="0.54" stop-color="#0CA648"/>
<stop offset="0.8" stop-color="#018B3B"/>
</radialGradient>
<radialGradient id="paint16_radial_357_4469" cx="0" cy="0" r="1" gradientTransform="matrix(47.8378 -1.4209 -1.02751 -35.0464 13.8318 1.85272)" gradientUnits="userSpaceOnUse">
<stop stop-color="#1ED25B"/>
<stop offset="0.18" stop-color="#1AC756"/>
<stop offset="0.51" stop-color="#0EA848"/>
<stop offset="0.8" stop-color="#01883A"/>
</radialGradient>
<radialGradient id="paint17_radial_357_4469" cx="0" cy="0" r="1" gradientTransform="matrix(47.7751 -0.946024 -0.684256 -35.0079 13.8147 1.78678)" gradientUnits="userSpaceOnUse">
<stop stop-color="#20D35C"/>
<stop offset="0.18" stop-color="#1BC857"/>
<stop offset="0.49" stop-color="#0FA949"/>
<stop offset="0.8" stop-color="#018539"/>
</radialGradient>
<radialGradient id="paint18_radial_357_4469" cx="0" cy="0" r="1" gradientTransform="matrix(47.7142 -0.944819 -0.683381 -34.9632 13.7954 1.77942)" gradientUnits="userSpaceOnUse">
<stop stop-color="#22D55D"/>
<stop offset="0.17" stop-color="#1DCA58"/>
<stop offset="0.47" stop-color="#11AB4A"/>
<stop offset="0.8" stop-color="#018237"/>
</radialGradient>
<radialGradient id="paint19_radial_357_4469" cx="0" cy="0" r="1" gradientTransform="matrix(47.6511 -0.943561 -0.682475 -34.9171 13.7748 1.77366)" gradientUnits="userSpaceOnUse">
<stop stop-color="#24D65E"/>
<stop offset="0.16" stop-color="#1FCB59"/>
<stop offset="0.45" stop-color="#13AC4B"/>
<stop offset="0.8" stop-color="#017F36"/>
</radialGradient>
<radialGradient id="paint20_radial_357_4469" cx="0" cy="0" r="1" gradientTransform="matrix(47.5902 -0.942364 -0.681607 -34.8724 13.7527 1.76939)" gradientUnits="userSpaceOnUse">
<stop stop-color="#25D85E"/>
<stop offset="0.15" stop-color="#20CD59"/>
<stop offset="0.43" stop-color="#14AE4B"/>
<stop offset="0.79" stop-color="#017D36"/>
<stop offset="0.8" stop-color="#007C35"/>
</radialGradient>
<radialGradient id="paint21_radial_357_4469" cx="0" cy="0" r="1" gradientTransform="matrix(47.5289 -0.94115 -0.680733 -34.8277 13.7293 1.76823)" gradientUnits="userSpaceOnUse">
<stop stop-color="#27D95F"/>
<stop offset="0.15" stop-color="#22CE5A"/>
<stop offset="0.42" stop-color="#16AF4C"/>
<stop offset="0.77" stop-color="#027E36"/>
<stop offset="0.8" stop-color="#007934"/>
</radialGradient>
<radialGradient id="paint22_radial_357_4469" cx="0" cy="0" r="1" gradientTransform="matrix(47.9378 -0.939937 -0.673193 -34.783 13.5786 1.76841)" gradientUnits="userSpaceOnUse">
<stop stop-color="#29DB60"/>
<stop offset="0.14" stop-color="#24D05B"/>
<stop offset="0.4" stop-color="#18B14D"/>
<stop offset="0.74" stop-color="#048037"/>
<stop offset="0.8" stop-color="#007632"/>
</radialGradient>
<radialGradient id="paint23_radial_357_4469" cx="0" cy="0" r="1" gradientTransform="matrix(47.8765 -0.938735 -0.672328 -34.7383 13.5386 1.7701)" gradientUnits="userSpaceOnUse">
<stop stop-color="#2BDC61"/>
<stop offset="0.14" stop-color="#26D15C"/>
<stop offset="0.39" stop-color="#1AB24E"/>
<stop offset="0.71" stop-color="#068138"/>
<stop offset="0.8" stop-color="#007331"/>
</radialGradient>
<radialGradient id="paint24_radial_357_4469" cx="0" cy="0" r="1" gradientTransform="matrix(47.8147 -0.937524 -0.671284 -34.6844 14.1606 1.77641)" gradientUnits="userSpaceOnUse">
<stop stop-color="#2CDE61"/>
<stop offset="0.13" stop-color="#27D35C"/>
<stop offset="0.37" stop-color="#1BB44E"/>
<stop offset="0.69" stop-color="#088339"/>
<stop offset="0.8" stop-color="#007030"/>
</radialGradient>
<radialGradient id="paint25_radial_357_4469" cx="0" cy="0" r="1" gradientTransform="matrix(47.7529 -0.936313 -0.670419 -34.6397 14.1441 1.78422)" gradientUnits="userSpaceOnUse">
<stop stop-color="#2EDF62"/>
<stop offset="0.13" stop-color="#29D45D"/>
<stop offset="0.37" stop-color="#1DB54F"/>
<stop offset="0.67" stop-color="#098439"/>
<stop offset="0.8" stop-color="#006E2F"/>
</radialGradient>
<radialGradient id="paint26_radial_357_4469" cx="0" cy="0" r="1" gradientTransform="matrix(47.6916 -0.935111 -0.669553 -34.595 14.1295 1.7934)" gradientUnits="userSpaceOnUse">
<stop stop-color="#30E163"/>
<stop offset="0.13" stop-color="#2BD65E"/>
<stop offset="0.35" stop-color="#1FB750"/>
<stop offset="0.65" stop-color="#0B8639"/>
<stop offset="0.8" stop-color="#006B2D"/>
</radialGradient>
<radialGradient id="paint27_radial_357_4469" cx="0" cy="0" r="1" gradientTransform="matrix(47.6317 -0.933937 -0.668714 -34.5516 14.109 1.80567)" gradientUnits="userSpaceOnUse">
<stop stop-color="#31E263"/>
<stop offset="0.12" stop-color="#2CD75E"/>
<stop offset="0.34" stop-color="#20B850"/>
<stop offset="0.63" stop-color="#0D873A"/>
<stop offset="0.8" stop-color="#00682C"/>
</radialGradient>
<radialGradient id="paint28_radial_357_4469" cx="0" cy="0" r="1" gradientTransform="matrix(47.5702 -0.466364 -0.333974 -34.5121 14.0873 1.61989)" gradientUnits="userSpaceOnUse">
<stop stop-color="#33E364"/>
<stop offset="0.12" stop-color="#2ED85F"/>
<stop offset="0.34" stop-color="#22B951"/>
<stop offset="0.62" stop-color="#0E883B"/>
<stop offset="0.8" stop-color="#00652B"/>
</radialGradient>
<radialGradient id="paint29_radial_357_4469" cx="0" cy="0" r="1" gradientTransform="matrix(47.5085 -0.465759 -0.333542 -34.4674 14.0661 1.62516)" gradientUnits="userSpaceOnUse">
<stop stop-color="#35E565"/>
<stop offset="0.12" stop-color="#30DA60"/>
<stop offset="0.33" stop-color="#24BB52"/>
<stop offset="0.6" stop-color="#108A3C"/>
<stop offset="0.8" stop-color="#00622A"/>
</radialGradient>
<radialGradient id="paint30_radial_357_4469" cx="0" cy="0" r="1" gradientTransform="matrix(47.4485 -0.465171 -0.333122 -34.4241 14.0448 1.631)" gradientUnits="userSpaceOnUse">
<stop stop-color="#37E666"/>
<stop offset="0.11" stop-color="#32DB61"/>
<stop offset="0.32" stop-color="#26BC53"/>
<stop offset="0.59" stop-color="#128B3C"/>
<stop offset="0.8" stop-color="#005F28"/>
</radialGradient>
<radialGradient id="paint31_radial_357_4469" cx="0" cy="0" r="1" gradientTransform="matrix(47.3891 -0.464589 -0.332703 -34.3807 14.019 1.63874)" gradientUnits="userSpaceOnUse">
<stop stop-color="#38E866"/>
<stop offset="0.11" stop-color="#33DD61"/>
<stop offset="0.31" stop-color="#27BE53"/>
<stop offset="0.57" stop-color="#148D3D"/>
<stop offset="0.8" stop-color="#005C27"/>
</radialGradient>
<radialGradient id="paint32_radial_357_4469" cx="0" cy="0" r="1" gradientTransform="matrix(47.3273 -0.463983 -0.33227 -34.336 13.9925 1.64916)" gradientUnits="userSpaceOnUse">
<stop stop-color="#3AE967"/>
<stop offset="0.11" stop-color="#35DE62"/>
<stop offset="0.3" stop-color="#29BF54"/>
<stop offset="0.56" stop-color="#158E3E"/>
<stop offset="0.8" stop-color="#005926"/>
</radialGradient>
<radialGradient id="paint33_radial_357_4469" cx="0" cy="0" r="1" gradientTransform="matrix(47.2674 -0.463395 -0.33185 -34.2926 13.9641 1.6643)" gradientUnits="userSpaceOnUse">
<stop stop-color="#3CEB68"/>
<stop offset="0.11" stop-color="#37E063"/>
<stop offset="0.29" stop-color="#2BC155"/>
<stop offset="0.54" stop-color="#17903F"/>
<stop offset="0.8" stop-color="#005625"/>
</radialGradient>
<radialGradient id="paint34_radial_357_4469" cx="0" cy="0" r="1" gradientTransform="matrix(47.2075 -0.462808 -0.33143 -34.2493 13.9376 1.67762)" gradientUnits="userSpaceOnUse">
<stop stop-color="#3EEC69"/>
<stop offset="0.1" stop-color="#39E164"/>
<stop offset="0.29" stop-color="#2DC256"/>
<stop offset="0.53" stop-color="#19913F"/>
<stop offset="0.8" stop-color="#005323"/>
</radialGradient>
<radialGradient id="paint35_radial_357_4469" cx="0" cy="0" r="1" gradientTransform="matrix(47.148 -0.462225 -0.331011 -34.2059 13.9078 1.69605)" gradientUnits="userSpaceOnUse">
<stop stop-color="#3FEE69"/>
<stop offset="0.1" stop-color="#3AE364"/>
<stop offset="0.28" stop-color="#2EC456"/>
<stop offset="0.52" stop-color="#1A9340"/>
<stop offset="0.8" stop-color="#005122"/>
</radialGradient>
<radialGradient id="paint36_radial_357_4469" cx="0" cy="0" r="1" gradientTransform="matrix(47.5517 -0.461657 -0.327395 -34.1639 13.5851 1.71513)" gradientUnits="userSpaceOnUse">
<stop stop-color="#41EF6A"/>
<stop offset="0.1" stop-color="#3CE465"/>
<stop offset="0.28" stop-color="#30C557"/>
<stop offset="0.51" stop-color="#1C9441"/>
<stop offset="0.79" stop-color="#015022"/>
<stop offset="0.8" stop-color="#004E21"/>
</radialGradient>
<radialGradient id="paint37_radial_357_4469" cx="0" cy="0" r="1" gradientTransform="matrix(47.4932 -0.461089 -0.326993 -34.1219 13.5422 1.73776)" gradientUnits="userSpaceOnUse">
<stop stop-color="#43F16B"/>
<stop offset="0.1" stop-color="#3EE666"/>
<stop offset="0.27" stop-color="#32C758"/>
<stop offset="0.5" stop-color="#1E9642"/>
<stop offset="0.77" stop-color="#035223"/>
<stop offset="0.8" stop-color="#004B20"/>
</radialGradient>
<radialGradient id="paint38_radial_357_4469" cx="0" cy="0" r="1" gradientTransform="matrix(47.4384 -0.460556 -0.326615 -34.0826 13.502 1.76139)" gradientUnits="userSpaceOnUse">
<stop stop-color="#45F26C"/>
<stop offset="0.1" stop-color="#40E767"/>
<stop offset="0.27" stop-color="#34C859"/>
<stop offset="0.49" stop-color="#209742"/>
<stop offset="0.76" stop-color="#055323"/>
<stop offset="0.8" stop-color="#00481E"/>
</radialGradient>
<radialGradient id="paint39_radial_357_4469" cx="0" cy="0" r="1" gradientUnits="userSpaceOnUse" gradientTransform="translate(13.4614 1.45888) scale(47.3783 34.0379)">
<stop stop-color="#46F46C"/>
<stop offset="0.09" stop-color="#41E967"/>
<stop offset="0.26" stop-color="#35CA59"/>
<stop offset="0.48" stop-color="#229943"/>
<stop offset="0.74" stop-color="#065524"/>
<stop offset="0.8" stop-color="#00451D"/>
</radialGradient>
<radialGradient id="paint40_radial_357_4469" cx="0" cy="0" r="1" gradientUnits="userSpaceOnUse" gradientTransform="translate(14.514 1.47493) scale(47.3198 33.9959)">
<stop stop-color="#48F56D"/>
<stop offset="0.09" stop-color="#43EA68"/>
<stop offset="0.25" stop-color="#37CB5A"/>
<stop offset="0.47" stop-color="#239A44"/>
<stop offset="0.73" stop-color="#085625"/>
<stop offset="0.8" stop-color="#00421C"/>
</radialGradient>
<linearGradient id="paint41_linear_357_4469" x1="15.1001" y1="26.3992" x2="11.0404" y2="-2.68353" gradientUnits="userSpaceOnUse">
<stop offset="0.1" stop-color="#FF8475"/>
<stop offset="0.37" stop-color="#E84E43"/>
<stop offset="0.6" stop-color="#D6261F"/>
<stop offset="0.79" stop-color="#CC0E08"/>
<stop offset="0.9" stop-color="#C80500"/>
</linearGradient>
<linearGradient id="paint42_linear_357_4469" x1="18.2513" y1="19.2495" x2="11.0178" y2="10.826" gradientUnits="userSpaceOnUse">
<stop stop-color="#9EF0BF"/>
<stop offset="1" stop-color="#55D48C"/>
</linearGradient>
<clipPath id="clip0_357_4469">
<rect width="22" height="22" fill="white"/>
</clipPath>
</defs>
</svg>
