<svg width="22" height="22" viewBox="0 0 22 22" fill="none" xmlns="http://www.w3.org/2000/svg">
<path d="M11 0C8.82441 0 6.69767 0.645139 4.88873 1.85383C3.07979 3.06253 1.66989 4.78049 0.837331 6.79048C0.00476687 8.80047 -0.213071 11.0122 0.211367 13.146C0.635804 15.2798 1.68345 17.2398 3.22183 18.7782C4.76021 20.3165 6.72022 21.3642 8.85401 21.7886C10.9878 22.2131 13.1995 21.9952 15.2095 21.1627C17.2195 20.3301 18.9375 18.9202 20.1462 17.1113C21.3549 15.3023 22 13.1756 22 11C21.9963 8.08377 20.8361 5.28805 18.774 3.22596C16.712 1.16387 13.9162 0.00374116 11 0ZM19.012 11C19.012 12.5846 18.5421 14.1337 17.6617 15.4512C16.7814 16.7688 15.5301 17.7957 14.0661 18.4021C12.6021 19.0085 10.9911 19.1672 9.43694 18.858C7.88276 18.5489 6.45516 17.7858 5.33467 16.6653C4.21417 15.5448 3.4511 14.1172 3.14196 12.5631C2.83281 11.0089 2.99148 9.39794 3.59788 7.93394C4.20429 6.46994 5.23121 5.21864 6.54878 4.33827C7.86634 3.4579 9.41538 2.988 11 2.988C13.1249 2.988 15.1628 3.83212 16.6653 5.33466C18.1679 6.8372 19.012 8.87508 19.012 11Z" fill="#FF0001"/>
<path d="M21.886 9.42584C21.5404 7.07533 20.4457 4.89903 18.7645 3.22038C17.0833 1.54173 14.9054 0.45032 12.5543 0.10836C12.3434 0.0809119 12.1291 0.099109 11.9258 0.16172C11.7225 0.22433 11.535 0.329892 11.3761 0.471257C11.1597 0.659463 11.0017 0.905626 10.9207 1.18071C10.8396 1.45579 10.8389 1.74831 10.9187 2.02376C10.9985 2.29922 11.1553 2.54612 11.3708 2.73533C11.5863 2.92454 11.8514 3.04818 12.1349 3.09165C13.8443 3.33871 15.4281 4.13154 16.6502 5.35198C17.8723 6.57241 18.6674 8.1551 18.9168 9.86414C18.961 10.1472 19.0852 10.4118 19.2747 10.6267C19.4642 10.8415 19.7111 10.9978 19.9865 11.077C20.2618 11.1563 20.5541 11.1552 20.8288 11.0739C21.1035 10.9926 21.3493 10.8345 21.5372 10.6182C21.6786 10.4568 21.783 10.2665 21.8432 10.0605C21.9035 9.85459 21.918 9.63799 21.886 9.42584Z" fill="black"/>
</svg>
