<svg width="28" height="28" viewBox="0 0 28 28" fill="none" xmlns="http://www.w3.org/2000/svg">
<path d="M2.88232 2.88232H6.92511L9.63377 17.06C9.72619 17.5474 9.97933 17.9853 10.3489 18.297C10.7184 18.6086 11.1808 18.7742 11.6552 18.7647H21.4791C21.9534 18.7742 22.4158 18.6086 22.7854 18.297C23.1549 17.9853 23.4081 17.5474 23.5005 17.06L25.1176 8.17644H7.9358M11.9786 24.0588C11.9786 24.6436 11.5261 25.1176 10.9679 25.1176C10.4097 25.1176 9.95719 24.6436 9.95719 24.0588C9.95719 23.474 10.4097 23 10.9679 23C11.5261 23 11.9786 23.474 11.9786 24.0588ZM23.0962 24.0588C23.0962 24.6436 22.6437 25.1176 22.0855 25.1176C21.5273 25.1176 21.0748 24.6436 21.0748 24.0588C21.0748 23.474 21.5273 23 22.0855 23C22.6437 23 23.0962 23.474 23.0962 24.0588Z" stroke="white" stroke-width="0.988235" stroke-linecap="round" stroke-linejoin="round"/>
</svg>
