<svg width="22" height="22" viewBox="0 0 22 22" fill="none" xmlns="http://www.w3.org/2000/svg">
<path d="M2 2H5.27273L7.46545 13.4771C7.54027 13.8718 7.7452 14.2263 8.04436 14.4785C8.34351 14.7308 8.71784 14.8649 9.10182 14.8571H17.0545C17.4385 14.8649 17.8129 14.7308 18.112 14.4785C18.4112 14.2263 18.6161 13.8718 18.6909 13.4771L20 6.28571H6.09091M9.36364 19.1429C9.36364 19.6162 8.99732 20 8.54545 20C8.09359 20 7.72727 19.6162 7.72727 19.1429C7.72727 18.6695 8.09359 18.2857 8.54545 18.2857C8.99732 18.2857 9.36364 18.6695 9.36364 19.1429ZM18.3636 19.1429C18.3636 19.6162 17.9973 20 17.5455 20C17.0936 20 16.7273 19.6162 16.7273 19.1429C16.7273 18.6695 17.0936 18.2857 17.5455 18.2857C17.9973 18.2857 18.3636 18.6695 18.3636 19.1429Z" stroke="white" stroke-width="0.8" stroke-linecap="round" stroke-linejoin="round"/>
</svg>
