<svg width="22" height="22" viewBox="0 0 22 22" fill="none" xmlns="http://www.w3.org/2000/svg">
<path d="M18.612 4.41452C18.1722 3.96607 17.65 3.61034 17.0752 3.36763C16.5005 3.12492 15.8844 3 15.2623 3C14.6401 3 14.0241 3.12492 13.4493 3.36763C12.8746 3.61034 12.3524 3.96607 11.9126 4.41452L10.9998 5.34476L10.087 4.41452C9.19858 3.50912 7.99364 3.00047 6.73725 3.00047C5.48085 3.00047 4.27591 3.50912 3.38751 4.41452C2.4991 5.31992 2 6.5479 2 7.82833C2 9.10875 2.4991 10.3367 3.38751 11.2421L4.30029 12.1724L10.9998 19L17.6992 12.1724L18.612 11.2421C19.0521 10.7939 19.4011 10.2617 19.6393 9.67596C19.8774 9.0902 20 8.46237 20 7.82833C20 7.19428 19.8774 6.56645 19.6393 5.9807C19.4011 5.39494 19.0521 4.86275 18.612 4.41452V4.41452Z" stroke="black" stroke-width="0.8" stroke-linecap="round" stroke-linejoin="round"/>
</svg>
