<svg width="33" height="22" viewBox="0 0 33 22" fill="none" xmlns="http://www.w3.org/2000/svg">
<path d="M32.9989 21.5533H17.4492V20.6504L17.7262 20.6362C18.8994 20.5586 19.5951 20.3911 19.8135 20.1336C20.0309 19.8762 20.1406 19.0925 20.1406 17.7817V3.77251C20.1406 2.45885 20.0309 1.67615 19.8135 1.42534C19.5951 1.17453 18.8994 1.00985 17.7262 0.932244L17.4492 0.902905V0H25.8863V0.902905L25.6102 0.931297C24.4276 1.0089 23.7281 1.17264 23.5154 1.42439C23.3017 1.6752 23.1959 2.45791 23.1959 3.77157V17.7808C23.1959 19.0727 23.2942 19.8147 23.4908 20.0096C23.6874 20.2037 24.4324 20.3002 25.7275 20.3002H27.9509C29.7073 20.3002 30.7131 20.2008 30.9693 20.0021C31.2245 19.8033 31.3871 18.9799 31.458 17.5338L31.4732 17.2423H32.9999V21.5533H32.9989Z" fill="black"/>
<path d="M10.0942 10.6058C11.9026 10.903 13.3206 11.5712 14.3473 12.6113C15.3739 13.6515 15.8872 14.9386 15.8872 16.4737C15.8872 18.3354 15.2784 19.7219 14.0599 20.6333C12.8423 21.5438 10.9809 22 8.47676 22H0V21.0782L0.281708 21.063C1.47944 20.9835 2.19033 20.8122 2.41248 20.5501C2.63558 20.2879 2.74712 19.4872 2.74712 18.1489V3.85012C2.74712 2.50901 2.63558 1.71022 2.41248 1.45373C2.19033 1.19725 1.48038 1.02973 0.282653 0.951172L0 0.920886V0H8.87758C10.8637 0 12.3772 0.416434 13.4189 1.2493C14.4607 2.08217 14.9816 3.29172 14.9816 4.8789C14.9816 6.16795 14.5741 7.29137 13.7602 8.24823C12.9453 9.20508 11.723 9.99062 10.0942 10.6058ZM5.82039 10.0928H6.68915C8.38885 10.0928 9.66409 9.68303 10.5139 8.86436C11.3638 8.04569 11.7892 6.82194 11.7892 5.19406C11.7892 3.65515 11.3969 2.57148 10.6142 1.9402C9.83047 1.30987 8.47487 0.994708 6.54735 0.994708H5.82039V10.0928ZM5.82039 11.0894V18.1499C5.82039 19.6661 5.94423 20.4885 6.19285 20.6173C6.66079 20.8747 7.35749 21.0034 8.28391 21.0034C9.58185 21.0034 10.6368 20.5945 11.4479 19.7768C12.259 18.9591 12.6655 17.8962 12.6655 16.5883C12.6655 12.9227 10.3835 11.0894 5.82039 11.0894Z" fill="black"/>
</svg>
